<?xml version="1.0" encoding="UTF-8" standalone="no"?>
<!DOCTYPE svg PUBLIC "-//W3C//DTD SVG 1.1//EN"
 "http://www.w3.org/Graphics/SVG/1.1/DTD/svg11.dtd">
<!-- Generated by graphviz version 2.40.1 (20161225.0304)
 -->
<!-- Title: dependencies Pages: 1 -->
<svg width="992pt" height="396pt"
 viewBox="0.00 0.00 992.00 395.59" xmlns="http://www.w3.org/2000/svg" xmlns:xlink="http://www.w3.org/1999/xlink">
<g id="graph0" class="graph" transform="scale(1 1) rotate(0) translate(4 391.5901)">
<title>dependencies</title>
<polygon fill="#ffffff" stroke="transparent" points="-4,4 -4,-391.5901 988,-391.5901 988,4 -4,4"/>
<text text-anchor="start" x="471.0091" y="-42.4" font-family="sans-serif" font-weight="bold" font-size="14.00" fill="#000000">Legend</text>
<polygon fill="#ffffb3" stroke="transparent" points="258,-10 258,-30 278,-30 278,-10 258,-10"/>
<text text-anchor="start" x="281.629" y="-15.4" font-family="sans-serif" font-size="14.00" fill="#000000"> &#160;Declarations</text>
<polygon fill="#8dd3c7" stroke="transparent" points="371,-10 371,-30 391,-30 391,-10 371,-10"/>
<text text-anchor="start" x="394.7251" y="-15.4" font-family="sans-serif" font-size="14.00" fill="#000000"> &#160;Module</text>
<polygon fill="#80b1d3" stroke="transparent" points="457,-10 457,-30 477,-30 477,-10 457,-10"/>
<text text-anchor="start" x="480.7812" y="-15.4" font-family="sans-serif" font-size="14.00" fill="#000000"> &#160;Bootstrap</text>
<polygon fill="#fdb462" stroke="transparent" points="554,-10 554,-30 574,-30 574,-10 554,-10"/>
<text text-anchor="start" x="577.6732" y="-15.4" font-family="sans-serif" font-size="14.00" fill="#000000"> &#160;Providers</text>
<polygon fill="#fb8072" stroke="transparent" points="650,-10 650,-30 670,-30 670,-10 650,-10"/>
<text text-anchor="start" x="673.7258" y="-15.4" font-family="sans-serif" font-size="14.00" fill="#000000"> &#160;Exports</text>
<g id="clust1" class="cluster">
<title>cluster_ProjectStatusesGridModule</title>
<polygon fill="none" stroke="#000000" stroke-dasharray="1,5" points="8,-70 8,-379.5901 976,-379.5901 976,-70 8,-70"/>
</g>
<g id="clust2" class="cluster">
<title>cluster_ProjectStatusesGridModule_declarations</title>
<polygon fill="none" stroke="#000000" points="388,-189.5901 388,-241.5901 596,-241.5901 596,-189.5901 388,-189.5901"/>
</g>
<g id="clust3" class="cluster">
<title>cluster_ProjectStatusesGridModule_ProjectStatusesGridComponent_providers</title>
<polygon fill="none" stroke="#000000" points="16,-78 16,-176.5901 968,-176.5901 968,-78 16,-78"/>
</g>
<g id="clust4" class="cluster">
<title>cluster_ProjectStatusesGridModule_imports</title>
<polygon fill="none" stroke="#000000" points="48,-189.5901 48,-241.5901 380,-241.5901 380,-189.5901 48,-189.5901"/>
</g>
<g id="clust5" class="cluster">
<title>cluster_ProjectStatusesGridModule_exports</title>
<polygon fill="none" stroke="#000000" points="43,-319.5901 43,-371.5901 596,-371.5901 596,-319.5901 43,-319.5901"/>
</g>
<!-- ProjectStatusesGridComponent -->
<g id="node1" class="node">
<title>ProjectStatusesGridComponent</title>
<polygon fill="#ffffb3" stroke="#000000" points="588.0266,-233.5901 395.9734,-233.5901 395.9734,-197.5901 588.0266,-197.5901 588.0266,-233.5901"/>
<text text-anchor="middle" x="492" y="-211.3901" font-family="Times,serif" font-size="14.00" fill="#000000">ProjectStatusesGridComponent</text>
</g>
<!-- ProjectStatusesGridModule -->
<g id="node2" class="node">
<title>ProjectStatusesGridModule</title>
<polygon fill="#8dd3c7" stroke="#000000" points="392.2436,-298.5901 389.2436,-302.5901 368.2436,-302.5901 365.2436,-298.5901 221.7564,-298.5901 221.7564,-262.5901 392.2436,-262.5901 392.2436,-298.5901"/>
<text text-anchor="middle" x="307" y="-276.3901" font-family="Times,serif" font-size="14.00" fill="#000000">ProjectStatusesGridModule</text>
</g>
<!-- ProjectStatusesGridComponent&#45;&gt;ProjectStatusesGridModule -->
<g id="edge1" class="edge">
<title>ProjectStatusesGridComponent&#45;&gt;ProjectStatusesGridModule</title>
<path fill="none" stroke="#000000" d="M395.722,-215.5901C387.5174,-215.5901 382.2665,-215.5901 382.2665,-215.5901 382.2665,-215.5901 382.2665,-252.4839 382.2665,-252.4839"/>
<polygon fill="#000000" stroke="#000000" points="378.7666,-252.4839 382.2665,-262.4839 385.7666,-252.484 378.7666,-252.4839"/>
</g>
<!-- ProjectStatusesGridComponent  -->
<g id="node6" class="node">
<title>ProjectStatusesGridComponent </title>
<polygon fill="#fb8072" stroke="#000000" points="588.026,-363.5901 391.974,-363.5901 391.974,-327.5901 588.026,-327.5901 588.026,-363.5901"/>
<text text-anchor="middle" x="490" y="-341.3901" font-family="Times,serif" font-size="14.00" fill="#000000">ProjectStatusesGridComponent </text>
</g>
<!-- ProjectStatusesGridModule&#45;&gt;ProjectStatusesGridComponent  -->
<g id="edge5" class="edge">
<title>ProjectStatusesGridModule&#45;&gt;ProjectStatusesGridComponent </title>
<path fill="none" stroke="#000000" stroke-dasharray="5,2" d="M382.9492,-298.6962C382.9492,-317.9292 382.9492,-345.5901 382.9492,-345.5901 382.9492,-345.5901 383.8252,-345.5901 383.8252,-345.5901"/>
<polygon fill="#000000" stroke="#000000" points="381.7096,-349.0902 391.7096,-345.5901 381.7095,-342.0902 381.7096,-349.0902"/>
</g>
<!-- StatusModalModule  -->
<g id="node7" class="node">
<title>StatusModalModule </title>
<polygon fill="#fb8072" stroke="#000000" points="373.8227,-363.5901 240.1773,-363.5901 240.1773,-327.5901 373.8227,-327.5901 373.8227,-363.5901"/>
<text text-anchor="middle" x="307" y="-341.3901" font-family="Times,serif" font-size="14.00" fill="#000000">StatusModalModule </text>
</g>
<!-- ProjectStatusesGridModule&#45;&gt;StatusModalModule  -->
<g id="edge6" class="edge">
<title>ProjectStatusesGridModule&#45;&gt;StatusModalModule </title>
<path fill="none" stroke="#000000" stroke-dasharray="5,2" d="M307,-298.6962C307,-298.6962 307,-317.581 307,-317.581"/>
<polygon fill="#000000" stroke="#000000" points="303.5001,-317.581 307,-327.581 310.5001,-317.5811 303.5001,-317.581"/>
</g>
<!-- StatusesGridModalModule  -->
<g id="node8" class="node">
<title>StatusesGridModalModule </title>
<polygon fill="#fb8072" stroke="#000000" points="222.6397,-363.5901 51.3603,-363.5901 51.3603,-327.5901 222.6397,-327.5901 222.6397,-363.5901"/>
<text text-anchor="middle" x="137" y="-341.3901" font-family="Times,serif" font-size="14.00" fill="#000000">StatusesGridModalModule </text>
</g>
<!-- ProjectStatusesGridModule&#45;&gt;StatusesGridModalModule  -->
<g id="edge7" class="edge">
<title>ProjectStatusesGridModule&#45;&gt;StatusesGridModalModule </title>
<path fill="none" stroke="#000000" stroke-dasharray="5,2" d="M231.3293,-298.6962C231.3293,-317.9292 231.3293,-345.5901 231.3293,-345.5901 231.3293,-345.5901 230.4587,-345.5901 230.4587,-345.5901"/>
<polygon fill="#000000" stroke="#000000" points="232.6241,-342.0902 222.6241,-345.5901 232.624,-349.0902 232.6241,-342.0902"/>
</g>
<!-- {
 &#160;&#160;&#160;provide: NG_VALUE_ACCESSOR, useExisting: forwardRef(() =&gt; ProjectStatusesGridComponent), multi: true
} -->
<g id="node3" class="node">
<title>{
 &#160;&#160;&#160;provide: NG_VALUE_ACCESSOR, useExisting: forwardRef(() =&gt; ProjectStatusesGridComponent), multi: true
}</title>
<ellipse fill="#fdb462" stroke="#000000" cx="492" cy="-127.295" rx="468.2736" ry="41.0911"/>
<text text-anchor="middle" x="492" y="-139.895" font-family="Times,serif" font-size="14.00" fill="#000000">{</text>
<text text-anchor="middle" x="492" y="-123.095" font-family="Times,serif" font-size="14.00" fill="#000000"> &#160;&#160;&#160;provide: NG_VALUE_ACCESSOR, useExisting: forwardRef(() =&gt; ProjectStatusesGridComponent), multi: true</text>
<text text-anchor="middle" x="492" y="-106.295" font-family="Times,serif" font-size="14.00" fill="#000000">}</text>
</g>
<!-- {
 &#160;&#160;&#160;provide: NG_VALUE_ACCESSOR, useExisting: forwardRef(() =&gt; ProjectStatusesGridComponent), multi: true
}&#45;&gt;ProjectStatusesGridComponent -->
<g id="edge2" class="edge">
<title>{
 &#160;&#160;&#160;provide: NG_VALUE_ACCESSOR, useExisting: forwardRef(() =&gt; ProjectStatusesGridComponent), multi: true
}&#45;&gt;ProjectStatusesGridComponent</title>
<path fill="none" stroke="#000000" d="M492,-168.5989C492,-168.5989 492,-187.2551 492,-187.2551"/>
<polygon fill="#000000" stroke="#000000" points="488.5001,-187.255 492,-197.2551 495.5001,-187.2551 488.5001,-187.255"/>
</g>
<!-- StatusModalModule -->
<g id="node4" class="node">
<title>StatusModalModule</title>
<polygon fill="#8dd3c7" stroke="#000000" points="372.323,-233.5901 369.323,-237.5901 348.323,-237.5901 345.323,-233.5901 241.677,-233.5901 241.677,-197.5901 372.323,-197.5901 372.323,-233.5901"/>
<text text-anchor="middle" x="307" y="-211.3901" font-family="Times,serif" font-size="14.00" fill="#000000">StatusModalModule</text>
</g>
<!-- StatusModalModule&#45;&gt;ProjectStatusesGridModule -->
<g id="edge3" class="edge">
<title>StatusModalModule&#45;&gt;ProjectStatusesGridModule</title>
<path fill="none" stroke="#000000" d="M307,-233.6962C307,-233.6962 307,-252.581 307,-252.581"/>
<polygon fill="#000000" stroke="#000000" points="303.5001,-252.581 307,-262.581 310.5001,-252.5811 303.5001,-252.581"/>
</g>
<!-- StatusesGridModalModule -->
<g id="node5" class="node">
<title>StatusesGridModalModule</title>
<polygon fill="#8dd3c7" stroke="#000000" points="223.64,-233.5901 220.64,-237.5901 199.64,-237.5901 196.64,-233.5901 56.36,-233.5901 56.36,-197.5901 223.64,-197.5901 223.64,-233.5901"/>
<text text-anchor="middle" x="140" y="-211.3901" font-family="Times,serif" font-size="14.00" fill="#000000">StatusesGridModalModule</text>
</g>
<!-- StatusesGridModalModule&#45;&gt;ProjectStatusesGridModule -->
<g id="edge4" class="edge">
<title>StatusesGridModalModule&#45;&gt;ProjectStatusesGridModule</title>
<path fill="none" stroke="#000000" d="M223.9284,-215.5901C229.4283,-215.5901 232.8293,-215.5901 232.8293,-215.5901 232.8293,-215.5901 232.8293,-252.4839 232.8293,-252.4839"/>
<polygon fill="#000000" stroke="#000000" points="229.3293,-252.4839 232.8293,-262.4839 236.3293,-252.484 229.3293,-252.4839"/>
</g>
</g>
</svg>
