<?xml version="1.0" encoding="UTF-8" standalone="no"?>
<!DOCTYPE svg PUBLIC "-//W3C//DTD SVG 1.1//EN"
 "http://www.w3.org/Graphics/SVG/1.1/DTD/svg11.dtd">
<!-- Generated by graphviz version 2.40.1 (20161225.0304)
 -->
<!-- Title: dependencies Pages: 1 -->
<svg width="504pt" height="284pt"
 viewBox="0.00 0.00 504.00 284.00" xmlns="http://www.w3.org/2000/svg" xmlns:xlink="http://www.w3.org/1999/xlink">
<g id="graph0" class="graph" transform="scale(1 1) rotate(0) translate(4 280)">
<title>dependencies</title>
<polygon fill="#ffffff" stroke="transparent" points="-4,4 -4,-280 500,-280 500,4 -4,4"/>
<text text-anchor="start" x="227.0091" y="-42.4" font-family="sans-serif" font-weight="bold" font-size="14.00" fill="#000000">Legend</text>
<polygon fill="#ffffb3" stroke="transparent" points="14,-10 14,-30 34,-30 34,-10 14,-10"/>
<text text-anchor="start" x="37.629" y="-15.4" font-family="sans-serif" font-size="14.00" fill="#000000"> &#160;Declarations</text>
<polygon fill="#8dd3c7" stroke="transparent" points="127,-10 127,-30 147,-30 147,-10 127,-10"/>
<text text-anchor="start" x="150.7251" y="-15.4" font-family="sans-serif" font-size="14.00" fill="#000000"> &#160;Module</text>
<polygon fill="#80b1d3" stroke="transparent" points="213,-10 213,-30 233,-30 233,-10 213,-10"/>
<text text-anchor="start" x="236.7812" y="-15.4" font-family="sans-serif" font-size="14.00" fill="#000000"> &#160;Bootstrap</text>
<polygon fill="#fdb462" stroke="transparent" points="310,-10 310,-30 330,-30 330,-10 310,-10"/>
<text text-anchor="start" x="333.6732" y="-15.4" font-family="sans-serif" font-size="14.00" fill="#000000"> &#160;Providers</text>
<polygon fill="#fb8072" stroke="transparent" points="406,-10 406,-30 426,-30 426,-10 406,-10"/>
<text text-anchor="start" x="429.7258" y="-15.4" font-family="sans-serif" font-size="14.00" fill="#000000"> &#160;Exports</text>
<g id="clust1" class="cluster">
<title>cluster_ProjectSelectModule</title>
<polygon fill="none" stroke="#000000" stroke-dasharray="1,5" points="58.5,-70 58.5,-268 437.5,-268 437.5,-70 58.5,-70"/>
</g>
<g id="clust2" class="cluster">
<title>cluster_ProjectSelectModule_declarations</title>
<polygon fill="none" stroke="#000000" points="257.5,-78 257.5,-130 429.5,-130 429.5,-78 257.5,-78"/>
</g>
<g id="clust4" class="cluster">
<title>cluster_ProjectSelectModule_imports</title>
<polygon fill="none" stroke="#000000" points="67.5,-78 67.5,-130 249.5,-130 249.5,-78 67.5,-78"/>
</g>
<g id="clust5" class="cluster">
<title>cluster_ProjectSelectModule_exports</title>
<polygon fill="none" stroke="#000000" points="66.5,-208 66.5,-260 429.5,-260 429.5,-208 66.5,-208"/>
</g>
<!-- ProjectSelectComponent -->
<g id="node1" class="node">
<title>ProjectSelectComponent</title>
<polygon fill="#ffffb3" stroke="#000000" points="421.1937,-122 265.8063,-122 265.8063,-86 421.1937,-86 421.1937,-122"/>
<text text-anchor="middle" x="343.5" y="-99.8" font-family="Times,serif" font-size="14.00" fill="#000000">ProjectSelectComponent</text>
</g>
<!-- ProjectSelectModule -->
<g id="node2" class="node">
<title>ProjectSelectModule</title>
<polygon fill="#8dd3c7" stroke="#000000" points="317.4116,-187 314.4116,-191 293.4116,-191 290.4116,-187 183.5884,-187 183.5884,-151 317.4116,-151 317.4116,-187"/>
<text text-anchor="middle" x="250.5" y="-164.8" font-family="Times,serif" font-size="14.00" fill="#000000">ProjectSelectModule</text>
</g>
<!-- ProjectSelectComponent&#45;&gt;ProjectSelectModule -->
<g id="edge1" class="edge">
<title>ProjectSelectComponent&#45;&gt;ProjectSelectModule</title>
<path fill="none" stroke="#000000" d="M291.5544,-122.1061C291.5544,-122.1061 291.5544,-140.991 291.5544,-140.991"/>
<polygon fill="#000000" stroke="#000000" points="288.0544,-140.9909 291.5544,-150.991 295.0544,-140.991 288.0544,-140.9909"/>
</g>
<!-- ProjectSelectComponent  -->
<g id="node4" class="node">
<title>ProjectSelectComponent </title>
<polygon fill="#fb8072" stroke="#000000" points="421.6939,-252 263.3061,-252 263.3061,-216 421.6939,-216 421.6939,-252"/>
<text text-anchor="middle" x="342.5" y="-229.8" font-family="Times,serif" font-size="14.00" fill="#000000">ProjectSelectComponent </text>
</g>
<!-- ProjectSelectModule&#45;&gt;ProjectSelectComponent  -->
<g id="edge3" class="edge">
<title>ProjectSelectModule&#45;&gt;ProjectSelectComponent </title>
<path fill="none" stroke="#000000" stroke-dasharray="5,2" d="M290.1794,-187.1061C290.1794,-187.1061 290.1794,-205.991 290.1794,-205.991"/>
<polygon fill="#000000" stroke="#000000" points="286.6794,-205.9909 290.1794,-215.991 293.6794,-205.991 286.6794,-205.9909"/>
</g>
<!-- ProjectsGridModalModule  -->
<g id="node5" class="node">
<title>ProjectsGridModalModule </title>
<polygon fill="#fb8072" stroke="#000000" points="244.856,-252 74.144,-252 74.144,-216 244.856,-216 244.856,-252"/>
<text text-anchor="middle" x="159.5" y="-229.8" font-family="Times,serif" font-size="14.00" fill="#000000">ProjectsGridModalModule </text>
</g>
<!-- ProjectSelectModule&#45;&gt;ProjectsGridModalModule  -->
<g id="edge4" class="edge">
<title>ProjectSelectModule&#45;&gt;ProjectsGridModalModule </title>
<path fill="none" stroke="#000000" stroke-dasharray="5,2" d="M214.2362,-187.1061C214.2362,-187.1061 214.2362,-205.991 214.2362,-205.991"/>
<polygon fill="#000000" stroke="#000000" points="210.7362,-205.9909 214.2362,-215.991 217.7362,-205.991 210.7362,-205.9909"/>
</g>
<!-- ProjectsGridModalModule -->
<g id="node3" class="node">
<title>ProjectsGridModalModule</title>
<polygon fill="#8dd3c7" stroke="#000000" points="241.8557,-122 238.8557,-126 217.8557,-126 214.8557,-122 75.1443,-122 75.1443,-86 241.8557,-86 241.8557,-122"/>
<text text-anchor="middle" x="158.5" y="-99.8" font-family="Times,serif" font-size="14.00" fill="#000000">ProjectsGridModalModule</text>
</g>
<!-- ProjectsGridModalModule&#45;&gt;ProjectSelectModule -->
<g id="edge2" class="edge">
<title>ProjectsGridModalModule&#45;&gt;ProjectSelectModule</title>
<path fill="none" stroke="#000000" d="M212.8612,-122.1061C212.8612,-122.1061 212.8612,-140.991 212.8612,-140.991"/>
<polygon fill="#000000" stroke="#000000" points="209.3612,-140.9909 212.8612,-150.991 216.3612,-140.991 209.3612,-140.9909"/>
</g>
</g>
</svg>
