<?xml version="1.0" encoding="UTF-8" standalone="no"?>
<!DOCTYPE svg PUBLIC "-//W3C//DTD SVG 1.1//EN"
 "http://www.w3.org/Graphics/SVG/1.1/DTD/svg11.dtd">
<!-- Generated by graphviz version 2.40.1 (20161225.0304)
 -->
<!-- Title: dependencies Pages: 1 -->
<svg width="588pt" height="284pt"
 viewBox="0.00 0.00 588.00 284.00" xmlns="http://www.w3.org/2000/svg" xmlns:xlink="http://www.w3.org/1999/xlink">
<g id="graph0" class="graph" transform="scale(1 1) rotate(0) translate(4 280)">
<title>dependencies</title>
<polygon fill="#ffffff" stroke="transparent" points="-4,4 -4,-280 584,-280 584,4 -4,4"/>
<text text-anchor="start" x="269.0091" y="-42.4" font-family="sans-serif" font-weight="bold" font-size="14.00" fill="#000000">Legend</text>
<polygon fill="#ffffb3" stroke="transparent" points="56,-10 56,-30 76,-30 76,-10 56,-10"/>
<text text-anchor="start" x="79.629" y="-15.4" font-family="sans-serif" font-size="14.00" fill="#000000"> &#160;Declarations</text>
<polygon fill="#8dd3c7" stroke="transparent" points="169,-10 169,-30 189,-30 189,-10 169,-10"/>
<text text-anchor="start" x="192.7251" y="-15.4" font-family="sans-serif" font-size="14.00" fill="#000000"> &#160;Module</text>
<polygon fill="#80b1d3" stroke="transparent" points="255,-10 255,-30 275,-30 275,-10 255,-10"/>
<text text-anchor="start" x="278.7812" y="-15.4" font-family="sans-serif" font-size="14.00" fill="#000000"> &#160;Bootstrap</text>
<polygon fill="#fdb462" stroke="transparent" points="352,-10 352,-30 372,-30 372,-10 352,-10"/>
<text text-anchor="start" x="375.6732" y="-15.4" font-family="sans-serif" font-size="14.00" fill="#000000"> &#160;Providers</text>
<polygon fill="#fb8072" stroke="transparent" points="448,-10 448,-30 468,-30 468,-10 448,-10"/>
<text text-anchor="start" x="471.7258" y="-15.4" font-family="sans-serif" font-size="14.00" fill="#000000"> &#160;Exports</text>
<g id="clust1" class="cluster">
<title>cluster_ProjectModalModule</title>
<polygon fill="none" stroke="#000000" stroke-dasharray="1,5" points="8,-70 8,-268 572,-268 572,-70 8,-70"/>
</g>
<g id="clust2" class="cluster">
<title>cluster_ProjectModalModule_declarations</title>
<polygon fill="none" stroke="#000000" points="390,-78 390,-130 564,-130 564,-78 390,-78"/>
</g>
<g id="clust4" class="cluster">
<title>cluster_ProjectModalModule_imports</title>
<polygon fill="none" stroke="#000000" points="21,-78 21,-130 382,-130 382,-78 21,-78"/>
</g>
<g id="clust5" class="cluster">
<title>cluster_ProjectModalModule_exports</title>
<polygon fill="none" stroke="#000000" points="16,-208 16,-260 564,-260 564,-208 16,-208"/>
</g>
<!-- ProjectModalComponent -->
<g id="node1" class="node">
<title>ProjectModalComponent</title>
<polygon fill="#ffffb3" stroke="#000000" points="555.5365,-122 398.4635,-122 398.4635,-86 555.5365,-86 555.5365,-122"/>
<text text-anchor="middle" x="477" y="-99.8" font-family="Times,serif" font-size="14.00" fill="#000000">ProjectModalComponent</text>
</g>
<!-- ProjectModalModule -->
<g id="node2" class="node">
<title>ProjectModalModule</title>
<polygon fill="#8dd3c7" stroke="#000000" points="356.7534,-187 353.7534,-191 332.7534,-191 329.7534,-187 221.2466,-187 221.2466,-151 356.7534,-151 356.7534,-187"/>
<text text-anchor="middle" x="289" y="-164.8" font-family="Times,serif" font-size="14.00" fill="#000000">ProjectModalModule</text>
</g>
<!-- ProjectModalComponent&#45;&gt;ProjectModalModule -->
<g id="edge1" class="edge">
<title>ProjectModalComponent&#45;&gt;ProjectModalModule</title>
<path fill="none" stroke="#000000" d="M450.6607,-122.0225C450.6607,-139.3734 450.6607,-163 450.6607,-163 450.6607,-163 367.0902,-163 367.0902,-163"/>
<polygon fill="#000000" stroke="#000000" points="367.0902,-159.5001 357.0902,-163 367.0901,-166.5001 367.0902,-159.5001"/>
</g>
<!-- ProjectModalComponent  -->
<g id="node5" class="node">
<title>ProjectModalComponent </title>
<polygon fill="#fb8072" stroke="#000000" points="555.5358,-252 394.4642,-252 394.4642,-216 555.5358,-216 555.5358,-252"/>
<text text-anchor="middle" x="475" y="-229.8" font-family="Times,serif" font-size="14.00" fill="#000000">ProjectModalComponent </text>
</g>
<!-- ProjectModalModule&#45;&gt;ProjectModalComponent  -->
<g id="edge4" class="edge">
<title>ProjectModalModule&#45;&gt;ProjectModalComponent </title>
<path fill="none" stroke="#000000" stroke-dasharray="5,2" d="M357.0334,-175C419.7218,-175 503.0893,-175 503.0893,-175 503.0893,-175 503.0893,-205.9775 503.0893,-205.9775"/>
<polygon fill="#000000" stroke="#000000" points="499.5894,-205.9774 503.0893,-215.9775 506.5894,-205.9775 499.5894,-205.9774"/>
</g>
<!-- ProjectStatusesGridModule  -->
<g id="node6" class="node">
<title>ProjectStatusesGridModule </title>
<polygon fill="#fb8072" stroke="#000000" points="376.2436,-252 201.7564,-252 201.7564,-216 376.2436,-216 376.2436,-252"/>
<text text-anchor="middle" x="289" y="-229.8" font-family="Times,serif" font-size="14.00" fill="#000000">ProjectStatusesGridModule </text>
</g>
<!-- ProjectModalModule&#45;&gt;ProjectStatusesGridModule  -->
<g id="edge5" class="edge">
<title>ProjectModalModule&#45;&gt;ProjectStatusesGridModule </title>
<path fill="none" stroke="#000000" stroke-dasharray="5,2" d="M289,-187.1061C289,-187.1061 289,-205.991 289,-205.991"/>
<polygon fill="#000000" stroke="#000000" points="285.5001,-205.9909 289,-215.991 292.5001,-205.991 285.5001,-205.9909"/>
</g>
<!-- ProjectUsersGridModule  -->
<g id="node7" class="node">
<title>ProjectUsersGridModule </title>
<polygon fill="#fb8072" stroke="#000000" points="184.2324,-252 23.7676,-252 23.7676,-216 184.2324,-216 184.2324,-252"/>
<text text-anchor="middle" x="104" y="-229.8" font-family="Times,serif" font-size="14.00" fill="#000000">ProjectUsersGridModule </text>
</g>
<!-- ProjectModalModule&#45;&gt;ProjectUsersGridModule  -->
<g id="edge6" class="edge">
<title>ProjectModalModule&#45;&gt;ProjectUsersGridModule </title>
<path fill="none" stroke="#000000" stroke-dasharray="5,2" d="M221.0052,-175C160.1495,-175 80.4613,-175 80.4613,-175 80.4613,-175 80.4613,-205.9775 80.4613,-205.9775"/>
<polygon fill="#000000" stroke="#000000" points="76.9614,-205.9774 80.4613,-215.9775 83.9614,-205.9775 76.9614,-205.9774"/>
</g>
<!-- ProjectStatusesGridModule -->
<g id="node3" class="node">
<title>ProjectStatusesGridModule</title>
<polygon fill="#8dd3c7" stroke="#000000" points="374.2436,-122 371.2436,-126 350.2436,-126 347.2436,-122 203.7564,-122 203.7564,-86 374.2436,-86 374.2436,-122"/>
<text text-anchor="middle" x="289" y="-99.8" font-family="Times,serif" font-size="14.00" fill="#000000">ProjectStatusesGridModule</text>
</g>
<!-- ProjectStatusesGridModule&#45;&gt;ProjectModalModule -->
<g id="edge2" class="edge">
<title>ProjectStatusesGridModule&#45;&gt;ProjectModalModule</title>
<path fill="none" stroke="#000000" d="M289,-122.1061C289,-122.1061 289,-140.991 289,-140.991"/>
<polygon fill="#000000" stroke="#000000" points="285.5001,-140.9909 289,-150.991 292.5001,-140.991 285.5001,-140.9909"/>
</g>
<!-- ProjectUsersGridModule -->
<g id="node4" class="node">
<title>ProjectUsersGridModule</title>
<polygon fill="#8dd3c7" stroke="#000000" points="185.2324,-122 182.2324,-126 161.2324,-126 158.2324,-122 28.7676,-122 28.7676,-86 185.2324,-86 185.2324,-122"/>
<text text-anchor="middle" x="107" y="-99.8" font-family="Times,serif" font-size="14.00" fill="#000000">ProjectUsersGridModule</text>
</g>
<!-- ProjectUsersGridModule&#45;&gt;ProjectModalModule -->
<g id="edge3" class="edge">
<title>ProjectUsersGridModule&#45;&gt;ProjectModalModule</title>
<path fill="none" stroke="#000000" d="M132.2887,-122.0225C132.2887,-139.3734 132.2887,-163 132.2887,-163 132.2887,-163 211.1756,-163 211.1756,-163"/>
<polygon fill="#000000" stroke="#000000" points="211.1756,-166.5001 221.1756,-163 211.1756,-159.5001 211.1756,-166.5001"/>
</g>
</g>
</svg>
