<?xml version="1.0" encoding="UTF-8" standalone="no"?>
<!DOCTYPE svg PUBLIC "-//W3C//DTD SVG 1.1//EN"
 "http://www.w3.org/Graphics/SVG/1.1/DTD/svg11.dtd">
<!-- Generated by graphviz version 2.40.1 (20161225.0304)
 -->
<!-- Title: dependencies Pages: 1 -->
<svg width="504pt" height="284pt"
 viewBox="0.00 0.00 504.00 284.00" xmlns="http://www.w3.org/2000/svg" xmlns:xlink="http://www.w3.org/1999/xlink">
<g id="graph0" class="graph" transform="scale(1 1) rotate(0) translate(4 280)">
<title>dependencies</title>
<polygon fill="#ffffff" stroke="transparent" points="-4,4 -4,-280 500,-280 500,4 -4,4"/>
<text text-anchor="start" x="227.0091" y="-42.4" font-family="sans-serif" font-weight="bold" font-size="14.00" fill="#000000">Legend</text>
<polygon fill="#ffffb3" stroke="transparent" points="14,-10 14,-30 34,-30 34,-10 14,-10"/>
<text text-anchor="start" x="37.629" y="-15.4" font-family="sans-serif" font-size="14.00" fill="#000000"> &#160;Declarations</text>
<polygon fill="#8dd3c7" stroke="transparent" points="127,-10 127,-30 147,-30 147,-10 127,-10"/>
<text text-anchor="start" x="150.7251" y="-15.4" font-family="sans-serif" font-size="14.00" fill="#000000"> &#160;Module</text>
<polygon fill="#80b1d3" stroke="transparent" points="213,-10 213,-30 233,-30 233,-10 213,-10"/>
<text text-anchor="start" x="236.7812" y="-15.4" font-family="sans-serif" font-size="14.00" fill="#000000"> &#160;Bootstrap</text>
<polygon fill="#fdb462" stroke="transparent" points="310,-10 310,-30 330,-30 330,-10 310,-10"/>
<text text-anchor="start" x="333.6732" y="-15.4" font-family="sans-serif" font-size="14.00" fill="#000000"> &#160;Providers</text>
<polygon fill="#fb8072" stroke="transparent" points="406,-10 406,-30 426,-30 426,-10 406,-10"/>
<text text-anchor="start" x="429.7258" y="-15.4" font-family="sans-serif" font-size="14.00" fill="#000000"> &#160;Exports</text>
<g id="clust1" class="cluster">
<title>cluster_TaskInputModule</title>
<polygon fill="none" stroke="#000000" stroke-dasharray="1,5" points="73,-70 73,-268 423,-268 423,-70 73,-70"/>
</g>
<g id="clust2" class="cluster">
<title>cluster_TaskInputModule_declarations</title>
<polygon fill="none" stroke="#000000" points="260,-78 260,-130 414,-130 414,-78 260,-78"/>
</g>
<g id="clust4" class="cluster">
<title>cluster_TaskInputModule_imports</title>
<polygon fill="none" stroke="#000000" points="82,-78 82,-130 252,-130 252,-78 82,-78"/>
</g>
<g id="clust5" class="cluster">
<title>cluster_TaskInputModule_exports</title>
<polygon fill="none" stroke="#000000" points="81,-208 81,-260 415,-260 415,-208 81,-208"/>
</g>
<!-- TaskInputComponent -->
<g id="node1" class="node">
<title>TaskInputComponent</title>
<polygon fill="#ffffb3" stroke="#000000" points="406.0954,-122 267.9046,-122 267.9046,-86 406.0954,-86 406.0954,-122"/>
<text text-anchor="middle" x="337" y="-99.8" font-family="Times,serif" font-size="14.00" fill="#000000">TaskInputComponent</text>
</g>
<!-- TaskInputModule -->
<g id="node2" class="node">
<title>TaskInputModule</title>
<polygon fill="#8dd3c7" stroke="#000000" points="310.3132,-187 307.3132,-191 286.3132,-191 283.3132,-187 193.6868,-187 193.6868,-151 310.3132,-151 310.3132,-187"/>
<text text-anchor="middle" x="252" y="-164.8" font-family="Times,serif" font-size="14.00" fill="#000000">TaskInputModule</text>
</g>
<!-- TaskInputComponent&#45;&gt;TaskInputModule -->
<g id="edge1" class="edge">
<title>TaskInputComponent&#45;&gt;TaskInputModule</title>
<path fill="none" stroke="#000000" d="M289.0544,-122.1061C289.0544,-122.1061 289.0544,-140.991 289.0544,-140.991"/>
<polygon fill="#000000" stroke="#000000" points="285.5544,-140.9909 289.0544,-150.991 292.5544,-140.991 285.5544,-140.9909"/>
</g>
<!-- TaskInputComponent  -->
<g id="node4" class="node">
<title>TaskInputComponent </title>
<polygon fill="#fb8072" stroke="#000000" points="406.596,-252 265.404,-252 265.404,-216 406.596,-216 406.596,-252"/>
<text text-anchor="middle" x="336" y="-229.8" font-family="Times,serif" font-size="14.00" fill="#000000">TaskInputComponent </text>
</g>
<!-- TaskInputModule&#45;&gt;TaskInputComponent  -->
<g id="edge3" class="edge">
<title>TaskInputModule&#45;&gt;TaskInputComponent </title>
<path fill="none" stroke="#000000" stroke-dasharray="5,2" d="M287.6794,-187.1061C287.6794,-187.1061 287.6794,-205.991 287.6794,-205.991"/>
<polygon fill="#000000" stroke="#000000" points="284.1794,-205.9909 287.6794,-215.991 291.1794,-205.991 284.1794,-205.9909"/>
</g>
<!-- TasksGridModalModule  -->
<g id="node5" class="node">
<title>TasksGridModalModule </title>
<polygon fill="#fb8072" stroke="#000000" points="246.9138,-252 89.0862,-252 89.0862,-216 246.9138,-216 246.9138,-252"/>
<text text-anchor="middle" x="168" y="-229.8" font-family="Times,serif" font-size="14.00" fill="#000000">TasksGridModalModule </text>
</g>
<!-- TaskInputModule&#45;&gt;TasksGridModalModule  -->
<g id="edge4" class="edge">
<title>TaskInputModule&#45;&gt;TasksGridModalModule </title>
<path fill="none" stroke="#000000" stroke-dasharray="5,2" d="M220.4003,-187.1061C220.4003,-187.1061 220.4003,-205.991 220.4003,-205.991"/>
<polygon fill="#000000" stroke="#000000" points="216.9003,-205.9909 220.4003,-215.991 223.9003,-205.991 216.9003,-205.9909"/>
</g>
<!-- TasksGridModalModule -->
<g id="node3" class="node">
<title>TasksGridModalModule</title>
<polygon fill="#8dd3c7" stroke="#000000" points="244.4144,-122 241.4144,-126 220.4144,-126 217.4144,-122 89.5856,-122 89.5856,-86 244.4144,-86 244.4144,-122"/>
<text text-anchor="middle" x="167" y="-99.8" font-family="Times,serif" font-size="14.00" fill="#000000">TasksGridModalModule</text>
</g>
<!-- TasksGridModalModule&#45;&gt;TaskInputModule -->
<g id="edge2" class="edge">
<title>TasksGridModalModule&#45;&gt;TaskInputModule</title>
<path fill="none" stroke="#000000" d="M219.0253,-122.1061C219.0253,-122.1061 219.0253,-140.991 219.0253,-140.991"/>
<polygon fill="#000000" stroke="#000000" points="215.5253,-140.9909 219.0253,-150.991 222.5253,-140.991 215.5253,-140.9909"/>
</g>
</g>
</svg>
