<?xml version="1.0" encoding="UTF-8" standalone="no"?>
<!DOCTYPE svg PUBLIC "-//W3C//DTD SVG 1.1//EN"
 "http://www.w3.org/Graphics/SVG/1.1/DTD/svg11.dtd">
<!-- Generated by graphviz version 2.40.1 (20161225.0304)
 -->
<!-- Title: dependencies Pages: 1 -->
<svg width="504pt" height="284pt"
 viewBox="0.00 0.00 504.00 284.00" xmlns="http://www.w3.org/2000/svg" xmlns:xlink="http://www.w3.org/1999/xlink">
<g id="graph0" class="graph" transform="scale(1 1) rotate(0) translate(4 280)">
<title>dependencies</title>
<polygon fill="#ffffff" stroke="transparent" points="-4,4 -4,-280 500,-280 500,4 -4,4"/>
<text text-anchor="start" x="227.0091" y="-42.4" font-family="sans-serif" font-weight="bold" font-size="14.00" fill="#000000">Legend</text>
<polygon fill="#ffffb3" stroke="transparent" points="14,-10 14,-30 34,-30 34,-10 14,-10"/>
<text text-anchor="start" x="37.629" y="-15.4" font-family="sans-serif" font-size="14.00" fill="#000000"> &#160;Declarations</text>
<polygon fill="#8dd3c7" stroke="transparent" points="127,-10 127,-30 147,-30 147,-10 127,-10"/>
<text text-anchor="start" x="150.7251" y="-15.4" font-family="sans-serif" font-size="14.00" fill="#000000"> &#160;Module</text>
<polygon fill="#80b1d3" stroke="transparent" points="213,-10 213,-30 233,-30 233,-10 213,-10"/>
<text text-anchor="start" x="236.7812" y="-15.4" font-family="sans-serif" font-size="14.00" fill="#000000"> &#160;Bootstrap</text>
<polygon fill="#fdb462" stroke="transparent" points="310,-10 310,-30 330,-30 330,-10 310,-10"/>
<text text-anchor="start" x="333.6732" y="-15.4" font-family="sans-serif" font-size="14.00" fill="#000000"> &#160;Providers</text>
<polygon fill="#fb8072" stroke="transparent" points="406,-10 406,-30 426,-30 426,-10 406,-10"/>
<text text-anchor="start" x="429.7258" y="-15.4" font-family="sans-serif" font-size="14.00" fill="#000000"> &#160;Exports</text>
<g id="clust1" class="cluster">
<title>cluster_ProjectsGridModalModule</title>
<polygon fill="none" stroke="#000000" stroke-dasharray="1,5" points="60,-70 60,-268 436,-268 436,-70 60,-70"/>
</g>
<g id="clust2" class="cluster">
<title>cluster_ProjectsGridModalModule_declarations</title>
<polygon fill="none" stroke="#000000" points="223,-78 223,-130 427,-130 427,-78 223,-78"/>
</g>
<g id="clust4" class="cluster">
<title>cluster_ProjectsGridModalModule_imports</title>
<polygon fill="none" stroke="#000000" points="69,-78 69,-130 215,-130 215,-78 69,-78"/>
</g>
<g id="clust5" class="cluster">
<title>cluster_ProjectsGridModalModule_exports</title>
<polygon fill="none" stroke="#000000" points="68,-208 68,-260 428,-260 428,-208 68,-208"/>
</g>
<!-- ProjectsGridModalComponent -->
<g id="node1" class="node">
<title>ProjectsGridModalComponent</title>
<polygon fill="#ffffb3" stroke="#000000" points="419.1385,-122 230.8615,-122 230.8615,-86 419.1385,-86 419.1385,-122"/>
<text text-anchor="middle" x="325" y="-99.8" font-family="Times,serif" font-size="14.00" fill="#000000">ProjectsGridModalComponent</text>
</g>
<!-- ProjectsGridModalModule -->
<g id="node2" class="node">
<title>ProjectsGridModalModule</title>
<polygon fill="#8dd3c7" stroke="#000000" points="320.3557,-187 317.3557,-191 296.3557,-191 293.3557,-187 153.6443,-187 153.6443,-151 320.3557,-151 320.3557,-187"/>
<text text-anchor="middle" x="237" y="-164.8" font-family="Times,serif" font-size="14.00" fill="#000000">ProjectsGridModalModule</text>
</g>
<!-- ProjectsGridModalComponent&#45;&gt;ProjectsGridModalModule -->
<g id="edge1" class="edge">
<title>ProjectsGridModalComponent&#45;&gt;ProjectsGridModalModule</title>
<path fill="none" stroke="#000000" d="M275.5544,-122.1061C275.5544,-122.1061 275.5544,-140.991 275.5544,-140.991"/>
<polygon fill="#000000" stroke="#000000" points="272.0544,-140.9909 275.5544,-150.991 279.0544,-140.991 272.0544,-140.9909"/>
</g>
<!-- ProjectsGridModalComponent  -->
<g id="node4" class="node">
<title>ProjectsGridModalComponent </title>
<polygon fill="#fb8072" stroke="#000000" points="420.1382,-252 227.8618,-252 227.8618,-216 420.1382,-216 420.1382,-252"/>
<text text-anchor="middle" x="324" y="-229.8" font-family="Times,serif" font-size="14.00" fill="#000000">ProjectsGridModalComponent </text>
</g>
<!-- ProjectsGridModalModule&#45;&gt;ProjectsGridModalComponent  -->
<g id="edge3" class="edge">
<title>ProjectsGridModalModule&#45;&gt;ProjectsGridModalComponent </title>
<path fill="none" stroke="#000000" stroke-dasharray="5,2" d="M274.1794,-187.1061C274.1794,-187.1061 274.1794,-205.991 274.1794,-205.991"/>
<polygon fill="#000000" stroke="#000000" points="270.6794,-205.9909 274.1794,-215.991 277.6794,-205.991 270.6794,-205.9909"/>
</g>
<!-- ProjectsGridModule  -->
<g id="node5" class="node">
<title>ProjectsGridModule </title>
<polygon fill="#fb8072" stroke="#000000" points="209.8059,-252 76.1941,-252 76.1941,-216 209.8059,-216 209.8059,-252"/>
<text text-anchor="middle" x="143" y="-229.8" font-family="Times,serif" font-size="14.00" fill="#000000">ProjectsGridModule </text>
</g>
<!-- ProjectsGridModalModule&#45;&gt;ProjectsGridModule  -->
<g id="edge4" class="edge">
<title>ProjectsGridModalModule&#45;&gt;ProjectsGridModule </title>
<path fill="none" stroke="#000000" stroke-dasharray="5,2" d="M181.7376,-187.1061C181.7376,-187.1061 181.7376,-205.991 181.7376,-205.991"/>
<polygon fill="#000000" stroke="#000000" points="178.2376,-205.9909 181.7376,-215.991 185.2376,-205.991 178.2376,-205.9909"/>
</g>
<!-- ProjectsGridModule -->
<g id="node3" class="node">
<title>ProjectsGridModule</title>
<polygon fill="#8dd3c7" stroke="#000000" points="207.3062,-122 204.3062,-126 183.3062,-126 180.3062,-122 76.6938,-122 76.6938,-86 207.3062,-86 207.3062,-122"/>
<text text-anchor="middle" x="142" y="-99.8" font-family="Times,serif" font-size="14.00" fill="#000000">ProjectsGridModule</text>
</g>
<!-- ProjectsGridModule&#45;&gt;ProjectsGridModalModule -->
<g id="edge2" class="edge">
<title>ProjectsGridModule&#45;&gt;ProjectsGridModalModule</title>
<path fill="none" stroke="#000000" d="M180.3626,-122.1061C180.3626,-122.1061 180.3626,-140.991 180.3626,-140.991"/>
<polygon fill="#000000" stroke="#000000" points="176.8626,-140.9909 180.3626,-150.991 183.8626,-140.991 176.8626,-140.9909"/>
</g>
</g>
</svg>
