<?xml version="1.0" encoding="UTF-8" standalone="no"?>
<!DOCTYPE svg PUBLIC "-//W3C//DTD SVG 1.1//EN"
 "http://www.w3.org/Graphics/SVG/1.1/DTD/svg11.dtd">
<!-- Generated by graphviz version 2.40.1 (20161225.0304)
 -->
<!-- Title: dependencies Pages: 1 -->
<svg width="504pt" height="284pt"
 viewBox="0.00 0.00 504.00 284.00" xmlns="http://www.w3.org/2000/svg" xmlns:xlink="http://www.w3.org/1999/xlink">
<g id="graph0" class="graph" transform="scale(1 1) rotate(0) translate(4 280)">
<title>dependencies</title>
<polygon fill="#ffffff" stroke="transparent" points="-4,4 -4,-280 500,-280 500,4 -4,4"/>
<text text-anchor="start" x="227.0091" y="-42.4" font-family="sans-serif" font-weight="bold" font-size="14.00" fill="#000000">Legend</text>
<polygon fill="#ffffb3" stroke="transparent" points="14,-10 14,-30 34,-30 34,-10 14,-10"/>
<text text-anchor="start" x="37.629" y="-15.4" font-family="sans-serif" font-size="14.00" fill="#000000"> &#160;Declarations</text>
<polygon fill="#8dd3c7" stroke="transparent" points="127,-10 127,-30 147,-30 147,-10 127,-10"/>
<text text-anchor="start" x="150.7251" y="-15.4" font-family="sans-serif" font-size="14.00" fill="#000000"> &#160;Module</text>
<polygon fill="#80b1d3" stroke="transparent" points="213,-10 213,-30 233,-30 233,-10 213,-10"/>
<text text-anchor="start" x="236.7812" y="-15.4" font-family="sans-serif" font-size="14.00" fill="#000000"> &#160;Bootstrap</text>
<polygon fill="#fdb462" stroke="transparent" points="310,-10 310,-30 330,-30 330,-10 310,-10"/>
<text text-anchor="start" x="333.6732" y="-15.4" font-family="sans-serif" font-size="14.00" fill="#000000"> &#160;Providers</text>
<polygon fill="#fb8072" stroke="transparent" points="406,-10 406,-30 426,-30 426,-10 406,-10"/>
<text text-anchor="start" x="429.7258" y="-15.4" font-family="sans-serif" font-size="14.00" fill="#000000"> &#160;Exports</text>
<g id="clust1" class="cluster">
<title>cluster_TasksGridModalModule</title>
<polygon fill="none" stroke="#000000" stroke-dasharray="1,5" points="72,-70 72,-268 424,-268 424,-70 72,-70"/>
</g>
<g id="clust2" class="cluster">
<title>cluster_TasksGridModalModule_declarations</title>
<polygon fill="none" stroke="#000000" points="223,-78 223,-130 415,-130 415,-78 223,-78"/>
</g>
<g id="clust4" class="cluster">
<title>cluster_TasksGridModalModule_imports</title>
<polygon fill="none" stroke="#000000" points="81,-78 81,-130 215,-130 215,-78 81,-78"/>
</g>
<g id="clust5" class="cluster">
<title>cluster_TasksGridModalModule_exports</title>
<polygon fill="none" stroke="#000000" points="80,-208 80,-260 416,-260 416,-208 80,-208"/>
</g>
<!-- TasksGridModalComponent -->
<g id="node1" class="node">
<title>TasksGridModalComponent</title>
<polygon fill="#ffffb3" stroke="#000000" points="407.1965,-122 230.8035,-122 230.8035,-86 407.1965,-86 407.1965,-122"/>
<text text-anchor="middle" x="319" y="-99.8" font-family="Times,serif" font-size="14.00" fill="#000000">TasksGridModalComponent</text>
</g>
<!-- TasksGridModalModule -->
<g id="node2" class="node">
<title>TasksGridModalModule</title>
<polygon fill="#8dd3c7" stroke="#000000" points="314.4144,-187 311.4144,-191 290.4144,-191 287.4144,-187 159.5856,-187 159.5856,-151 314.4144,-151 314.4144,-187"/>
<text text-anchor="middle" x="237" y="-164.8" font-family="Times,serif" font-size="14.00" fill="#000000">TasksGridModalModule</text>
</g>
<!-- TasksGridModalComponent&#45;&gt;TasksGridModalModule -->
<g id="edge1" class="edge">
<title>TasksGridModalComponent&#45;&gt;TasksGridModalModule</title>
<path fill="none" stroke="#000000" d="M272.5544,-122.1061C272.5544,-122.1061 272.5544,-140.991 272.5544,-140.991"/>
<polygon fill="#000000" stroke="#000000" points="269.0544,-140.9909 272.5544,-150.991 276.0544,-140.991 269.0544,-140.9909"/>
</g>
<!-- TasksGridModalComponent  -->
<g id="node4" class="node">
<title>TasksGridModalComponent </title>
<polygon fill="#fb8072" stroke="#000000" points="407.6967,-252 228.3033,-252 228.3033,-216 407.6967,-216 407.6967,-252"/>
<text text-anchor="middle" x="318" y="-229.8" font-family="Times,serif" font-size="14.00" fill="#000000">TasksGridModalComponent </text>
</g>
<!-- TasksGridModalModule&#45;&gt;TasksGridModalComponent  -->
<g id="edge3" class="edge">
<title>TasksGridModalModule&#45;&gt;TasksGridModalComponent </title>
<path fill="none" stroke="#000000" stroke-dasharray="5,2" d="M271.1794,-187.1061C271.1794,-187.1061 271.1794,-205.991 271.1794,-205.991"/>
<polygon fill="#000000" stroke="#000000" points="267.6794,-205.9909 271.1794,-215.991 274.6794,-205.991 267.6794,-205.9909"/>
</g>
<!-- TasksGridModule  -->
<g id="node5" class="node">
<title>TasksGridModule </title>
<polygon fill="#fb8072" stroke="#000000" points="209.8645,-252 88.1355,-252 88.1355,-216 209.8645,-216 209.8645,-252"/>
<text text-anchor="middle" x="149" y="-229.8" font-family="Times,serif" font-size="14.00" fill="#000000">TasksGridModule </text>
</g>
<!-- TasksGridModalModule&#45;&gt;TasksGridModule  -->
<g id="edge4" class="edge">
<title>TasksGridModalModule&#45;&gt;TasksGridModule </title>
<path fill="none" stroke="#000000" stroke-dasharray="5,2" d="M184.7376,-187.1061C184.7376,-187.1061 184.7376,-205.991 184.7376,-205.991"/>
<polygon fill="#000000" stroke="#000000" points="181.2376,-205.9909 184.7376,-215.991 188.2376,-205.991 181.2376,-205.9909"/>
</g>
<!-- TasksGridModule -->
<g id="node3" class="node">
<title>TasksGridModule</title>
<polygon fill="#8dd3c7" stroke="#000000" points="206.8641,-122 203.8641,-126 182.8641,-126 179.8641,-122 89.1359,-122 89.1359,-86 206.8641,-86 206.8641,-122"/>
<text text-anchor="middle" x="148" y="-99.8" font-family="Times,serif" font-size="14.00" fill="#000000">TasksGridModule</text>
</g>
<!-- TasksGridModule&#45;&gt;TasksGridModalModule -->
<g id="edge2" class="edge">
<title>TasksGridModule&#45;&gt;TasksGridModalModule</title>
<path fill="none" stroke="#000000" d="M183.3626,-122.1061C183.3626,-122.1061 183.3626,-140.991 183.3626,-140.991"/>
<polygon fill="#000000" stroke="#000000" points="179.8626,-140.9909 183.3626,-150.991 186.8626,-140.991 179.8626,-140.9909"/>
</g>
</g>
</svg>
