<?xml version="1.0" encoding="UTF-8" standalone="no"?>
<!DOCTYPE svg PUBLIC "-//W3C//DTD SVG 1.1//EN"
 "http://www.w3.org/Graphics/SVG/1.1/DTD/svg11.dtd">
<!-- Generated by graphviz version 2.40.1 (20161225.0304)
 -->
<!-- Title: dependencies Pages: 1 -->
<svg width="504pt" height="211pt"
 viewBox="0.00 0.00 504.00 211.00" xmlns="http://www.w3.org/2000/svg" xmlns:xlink="http://www.w3.org/1999/xlink">
<g id="graph0" class="graph" transform="scale(1 1) rotate(0) translate(4 207)">
<title>dependencies</title>
<polygon fill="#ffffff" stroke="transparent" points="-4,4 -4,-207 500,-207 500,4 -4,4"/>
<text text-anchor="start" x="227.0091" y="-42.4" font-family="sans-serif" font-weight="bold" font-size="14.00" fill="#000000">Legend</text>
<polygon fill="#ffffb3" stroke="transparent" points="14,-10 14,-30 34,-30 34,-10 14,-10"/>
<text text-anchor="start" x="37.629" y="-15.4" font-family="sans-serif" font-size="14.00" fill="#000000"> &#160;Declarations</text>
<polygon fill="#8dd3c7" stroke="transparent" points="127,-10 127,-30 147,-30 147,-10 127,-10"/>
<text text-anchor="start" x="150.7251" y="-15.4" font-family="sans-serif" font-size="14.00" fill="#000000"> &#160;Module</text>
<polygon fill="#80b1d3" stroke="transparent" points="213,-10 213,-30 233,-30 233,-10 213,-10"/>
<text text-anchor="start" x="236.7812" y="-15.4" font-family="sans-serif" font-size="14.00" fill="#000000"> &#160;Bootstrap</text>
<polygon fill="#fdb462" stroke="transparent" points="310,-10 310,-30 330,-30 330,-10 310,-10"/>
<text text-anchor="start" x="333.6732" y="-15.4" font-family="sans-serif" font-size="14.00" fill="#000000"> &#160;Providers</text>
<polygon fill="#fb8072" stroke="transparent" points="406,-10 406,-30 426,-30 426,-10 406,-10"/>
<text text-anchor="start" x="429.7258" y="-15.4" font-family="sans-serif" font-size="14.00" fill="#000000"> &#160;Exports</text>
<g id="clust1" class="cluster">
<title>cluster_ProjectsPageModule</title>
<polygon fill="none" stroke="#000000" stroke-dasharray="1,5" points="94,-70 94,-195 402,-195 402,-70 94,-70"/>
</g>
<g id="clust2" class="cluster">
<title>cluster_ProjectsPageModule_declarations</title>
<polygon fill="none" stroke="#000000" points="224,-78 224,-130 394,-130 394,-78 224,-78"/>
</g>
<g id="clust4" class="cluster">
<title>cluster_ProjectsPageModule_imports</title>
<polygon fill="none" stroke="#000000" points="102,-78 102,-130 216,-130 216,-78 102,-78"/>
</g>
<!-- ProjectsPageComponent -->
<g id="node1" class="node">
<title>ProjectsPageComponent</title>
<polygon fill="#ffffb3" stroke="#000000" points="385.6428,-122 232.3572,-122 232.3572,-86 385.6428,-86 385.6428,-122"/>
<text text-anchor="middle" x="309" y="-99.8" font-family="Times,serif" font-size="14.00" fill="#000000">ProjectsPageComponent</text>
</g>
<!-- ProjectsPageModule -->
<g id="node2" class="node">
<title>ProjectsPageModule</title>
<polygon fill="#8dd3c7" stroke="#000000" points="303.8599,-187 300.8599,-191 279.8599,-191 276.8599,-187 172.1401,-187 172.1401,-151 303.8599,-151 303.8599,-187"/>
<text text-anchor="middle" x="238" y="-164.8" font-family="Times,serif" font-size="14.00" fill="#000000">ProjectsPageModule</text>
</g>
<!-- ProjectsPageComponent&#45;&gt;ProjectsPageModule -->
<g id="edge1" class="edge">
<title>ProjectsPageComponent&#45;&gt;ProjectsPageModule</title>
<path fill="none" stroke="#000000" d="M268.0544,-122.1061C268.0544,-122.1061 268.0544,-140.991 268.0544,-140.991"/>
<polygon fill="#000000" stroke="#000000" points="264.5544,-140.9909 268.0544,-150.991 271.5544,-140.991 264.5544,-140.9909"/>
</g>
<!-- SharedModule -->
<g id="node3" class="node">
<title>SharedModule</title>
<polygon fill="#8dd3c7" stroke="#000000" points="208.4231,-122 205.4231,-126 184.4231,-126 181.4231,-122 109.5769,-122 109.5769,-86 208.4231,-86 208.4231,-122"/>
<text text-anchor="middle" x="159" y="-99.8" font-family="Times,serif" font-size="14.00" fill="#000000">SharedModule</text>
</g>
<!-- SharedModule&#45;&gt;ProjectsPageModule -->
<g id="edge2" class="edge">
<title>SharedModule&#45;&gt;ProjectsPageModule</title>
<path fill="none" stroke="#000000" d="M190.1406,-122.1061C190.1406,-122.1061 190.1406,-140.991 190.1406,-140.991"/>
<polygon fill="#000000" stroke="#000000" points="186.6407,-140.9909 190.1406,-150.991 193.6407,-140.991 186.6407,-140.9909"/>
</g>
</g>
</svg>
