<?xml version="1.0" encoding="UTF-8" standalone="no"?>
<!DOCTYPE svg PUBLIC "-//W3C//DTD SVG 1.1//EN"
 "http://www.w3.org/Graphics/SVG/1.1/DTD/svg11.dtd">
<!-- Generated by graphviz version 2.40.1 (20161225.0304)
 -->
<!-- Title: dependencies Pages: 1 -->
<svg width="504pt" height="284pt"
 viewBox="0.00 0.00 504.00 284.00" xmlns="http://www.w3.org/2000/svg" xmlns:xlink="http://www.w3.org/1999/xlink">
<g id="graph0" class="graph" transform="scale(1 1) rotate(0) translate(4 280)">
<title>dependencies</title>
<polygon fill="#ffffff" stroke="transparent" points="-4,4 -4,-280 500,-280 500,4 -4,4"/>
<text text-anchor="start" x="227.0091" y="-42.4" font-family="sans-serif" font-weight="bold" font-size="14.00" fill="#000000">Legend</text>
<polygon fill="#ffffb3" stroke="transparent" points="14,-10 14,-30 34,-30 34,-10 14,-10"/>
<text text-anchor="start" x="37.629" y="-15.4" font-family="sans-serif" font-size="14.00" fill="#000000"> &#160;Declarations</text>
<polygon fill="#8dd3c7" stroke="transparent" points="127,-10 127,-30 147,-30 147,-10 127,-10"/>
<text text-anchor="start" x="150.7251" y="-15.4" font-family="sans-serif" font-size="14.00" fill="#000000"> &#160;Module</text>
<polygon fill="#80b1d3" stroke="transparent" points="213,-10 213,-30 233,-30 233,-10 213,-10"/>
<text text-anchor="start" x="236.7812" y="-15.4" font-family="sans-serif" font-size="14.00" fill="#000000"> &#160;Bootstrap</text>
<polygon fill="#fdb462" stroke="transparent" points="310,-10 310,-30 330,-30 330,-10 310,-10"/>
<text text-anchor="start" x="333.6732" y="-15.4" font-family="sans-serif" font-size="14.00" fill="#000000"> &#160;Providers</text>
<polygon fill="#fb8072" stroke="transparent" points="406,-10 406,-30 426,-30 426,-10 406,-10"/>
<text text-anchor="start" x="429.7258" y="-15.4" font-family="sans-serif" font-size="14.00" fill="#000000"> &#160;Exports</text>
<g id="clust1" class="cluster">
<title>cluster_TaskModalModule</title>
<polygon fill="none" stroke="#000000" stroke-dasharray="1,5" points="83,-70 83,-268 413,-268 413,-70 83,-70"/>
</g>
<g id="clust2" class="cluster">
<title>cluster_TaskModalModule_declarations</title>
<polygon fill="none" stroke="#000000" points="241,-78 241,-130 403,-130 403,-78 241,-78"/>
</g>
<g id="clust4" class="cluster">
<title>cluster_TaskModalModule_imports</title>
<polygon fill="none" stroke="#000000" points="93,-78 93,-130 233,-130 233,-78 93,-78"/>
</g>
<g id="clust5" class="cluster">
<title>cluster_TaskModalModule_exports</title>
<polygon fill="none" stroke="#000000" points="91,-208 91,-260 405,-260 405,-208 91,-208"/>
</g>
<!-- TaskModalComponent -->
<g id="node1" class="node">
<title>TaskModalComponent</title>
<polygon fill="#ffffb3" stroke="#000000" points="394.594,-122 249.406,-122 249.406,-86 394.594,-86 394.594,-122"/>
<text text-anchor="middle" x="322" y="-99.8" font-family="Times,serif" font-size="14.00" fill="#000000">TaskModalComponent</text>
</g>
<!-- TaskModalModule -->
<g id="node2" class="node">
<title>TaskModalModule</title>
<polygon fill="#8dd3c7" stroke="#000000" points="308.8118,-187 305.8118,-191 284.8118,-191 281.8118,-187 185.1882,-187 185.1882,-151 308.8118,-151 308.8118,-187"/>
<text text-anchor="middle" x="247" y="-164.8" font-family="Times,serif" font-size="14.00" fill="#000000">TaskModalModule</text>
</g>
<!-- TaskModalComponent&#45;&gt;TaskModalModule -->
<g id="edge1" class="edge">
<title>TaskModalComponent&#45;&gt;TaskModalModule</title>
<path fill="none" stroke="#000000" d="M279.0544,-122.1061C279.0544,-122.1061 279.0544,-140.991 279.0544,-140.991"/>
<polygon fill="#000000" stroke="#000000" points="275.5544,-140.9909 279.0544,-150.991 282.5544,-140.991 275.5544,-140.9909"/>
</g>
<!-- StatusSelectModule  -->
<g id="node4" class="node">
<title>StatusSelectModule </title>
<polygon fill="#fb8072" stroke="#000000" points="396.9813,-252 265.0187,-252 265.0187,-216 396.9813,-216 396.9813,-252"/>
<text text-anchor="middle" x="331" y="-229.8" font-family="Times,serif" font-size="14.00" fill="#000000">StatusSelectModule </text>
</g>
<!-- TaskModalModule&#45;&gt;StatusSelectModule  -->
<g id="edge3" class="edge">
<title>TaskModalModule&#45;&gt;StatusSelectModule </title>
<path fill="none" stroke="#000000" stroke-dasharray="5,2" d="M286.9578,-187.1061C286.9578,-187.1061 286.9578,-205.991 286.9578,-205.991"/>
<polygon fill="#000000" stroke="#000000" points="283.4578,-205.9909 286.9578,-215.991 290.4578,-205.991 283.4578,-205.9909"/>
</g>
<!-- TaskModalComponent  -->
<g id="node5" class="node">
<title>TaskModalComponent </title>
<polygon fill="#fb8072" stroke="#000000" points="247.0946,-252 98.9054,-252 98.9054,-216 247.0946,-216 247.0946,-252"/>
<text text-anchor="middle" x="173" y="-229.8" font-family="Times,serif" font-size="14.00" fill="#000000">TaskModalComponent </text>
</g>
<!-- TaskModalModule&#45;&gt;TaskModalComponent  -->
<g id="edge4" class="edge">
<title>TaskModalModule&#45;&gt;TaskModalComponent </title>
<path fill="none" stroke="#000000" stroke-dasharray="5,2" d="M216.3207,-187.1061C216.3207,-187.1061 216.3207,-205.991 216.3207,-205.991"/>
<polygon fill="#000000" stroke="#000000" points="212.8207,-205.9909 216.3207,-215.991 219.8207,-205.991 212.8207,-205.9909"/>
</g>
<!-- StatusInputModule -->
<g id="node3" class="node">
<title>StatusInputModule</title>
<polygon fill="#8dd3c7" stroke="#000000" points="224.8244,-122 221.8244,-126 200.8244,-126 197.8244,-122 101.1756,-122 101.1756,-86 224.8244,-86 224.8244,-122"/>
<text text-anchor="middle" x="163" y="-99.8" font-family="Times,serif" font-size="14.00" fill="#000000">StatusInputModule</text>
</g>
<!-- StatusInputModule&#45;&gt;TaskModalModule -->
<g id="edge2" class="edge">
<title>StatusInputModule&#45;&gt;TaskModalModule</title>
<path fill="none" stroke="#000000" d="M205.0032,-122.1061C205.0032,-122.1061 205.0032,-140.991 205.0032,-140.991"/>
<polygon fill="#000000" stroke="#000000" points="201.5032,-140.9909 205.0032,-150.991 208.5032,-140.991 201.5032,-140.9909"/>
</g>
</g>
</svg>
