<?xml version="1.0" encoding="UTF-8" standalone="no"?>
<!DOCTYPE svg PUBLIC "-//W3C//DTD SVG 1.1//EN"
 "http://www.w3.org/Graphics/SVG/1.1/DTD/svg11.dtd">
<!-- Generated by graphviz version 2.40.1 (20161225.0304)
 -->
<!-- Title: dependencies Pages: 1 -->
<svg width="504pt" height="284pt"
 viewBox="0.00 0.00 504.00 284.00" xmlns="http://www.w3.org/2000/svg" xmlns:xlink="http://www.w3.org/1999/xlink">
<g id="graph0" class="graph" transform="scale(1 1) rotate(0) translate(4 280)">
<title>dependencies</title>
<polygon fill="#ffffff" stroke="transparent" points="-4,4 -4,-280 500,-280 500,4 -4,4"/>
<text text-anchor="start" x="227.0091" y="-42.4" font-family="sans-serif" font-weight="bold" font-size="14.00" fill="#000000">Legend</text>
<polygon fill="#ffffb3" stroke="transparent" points="14,-10 14,-30 34,-30 34,-10 14,-10"/>
<text text-anchor="start" x="37.629" y="-15.4" font-family="sans-serif" font-size="14.00" fill="#000000"> &#160;Declarations</text>
<polygon fill="#8dd3c7" stroke="transparent" points="127,-10 127,-30 147,-30 147,-10 127,-10"/>
<text text-anchor="start" x="150.7251" y="-15.4" font-family="sans-serif" font-size="14.00" fill="#000000"> &#160;Module</text>
<polygon fill="#80b1d3" stroke="transparent" points="213,-10 213,-30 233,-30 233,-10 213,-10"/>
<text text-anchor="start" x="236.7812" y="-15.4" font-family="sans-serif" font-size="14.00" fill="#000000"> &#160;Bootstrap</text>
<polygon fill="#fdb462" stroke="transparent" points="310,-10 310,-30 330,-30 330,-10 310,-10"/>
<text text-anchor="start" x="333.6732" y="-15.4" font-family="sans-serif" font-size="14.00" fill="#000000"> &#160;Providers</text>
<polygon fill="#fb8072" stroke="transparent" points="406,-10 406,-30 426,-30 426,-10 406,-10"/>
<text text-anchor="start" x="429.7258" y="-15.4" font-family="sans-serif" font-size="14.00" fill="#000000"> &#160;Exports</text>
<g id="clust1" class="cluster">
<title>cluster_ProjectsGridModule</title>
<polygon fill="none" stroke="#000000" stroke-dasharray="1,5" points="75.5,-70 75.5,-268 420.5,-268 420.5,-70 75.5,-70"/>
</g>
<g id="clust2" class="cluster">
<title>cluster_ProjectsGridModule_declarations</title>
<polygon fill="none" stroke="#000000" points="244.5,-78 244.5,-130 412.5,-130 412.5,-78 244.5,-78"/>
</g>
<g id="clust4" class="cluster">
<title>cluster_ProjectsGridModule_imports</title>
<polygon fill="none" stroke="#000000" points="84.5,-78 84.5,-130 236.5,-130 236.5,-78 84.5,-78"/>
</g>
<g id="clust5" class="cluster">
<title>cluster_ProjectsGridModule_exports</title>
<polygon fill="none" stroke="#000000" points="83.5,-208 83.5,-260 412.5,-260 412.5,-208 83.5,-208"/>
</g>
<!-- ProjectsGridComponent -->
<g id="node1" class="node">
<title>ProjectsGridComponent</title>
<polygon fill="#ffffb3" stroke="#000000" points="404.5884,-122 252.4116,-122 252.4116,-86 404.5884,-86 404.5884,-122"/>
<text text-anchor="middle" x="328.5" y="-99.8" font-family="Times,serif" font-size="14.00" fill="#000000">ProjectsGridComponent</text>
</g>
<!-- ProjectsGridModule -->
<g id="node2" class="node">
<title>ProjectsGridModule</title>
<polygon fill="#8dd3c7" stroke="#000000" points="313.8062,-187 310.8062,-191 289.8062,-191 286.8062,-187 183.1938,-187 183.1938,-151 313.8062,-151 313.8062,-187"/>
<text text-anchor="middle" x="248.5" y="-164.8" font-family="Times,serif" font-size="14.00" fill="#000000">ProjectsGridModule</text>
</g>
<!-- ProjectsGridComponent&#45;&gt;ProjectsGridModule -->
<g id="edge1" class="edge">
<title>ProjectsGridComponent&#45;&gt;ProjectsGridModule</title>
<path fill="none" stroke="#000000" d="M283.0544,-122.1061C283.0544,-122.1061 283.0544,-140.991 283.0544,-140.991"/>
<polygon fill="#000000" stroke="#000000" points="279.5544,-140.9909 283.0544,-150.991 286.5544,-140.991 279.5544,-140.9909"/>
</g>
<!-- ProjectModalModule  -->
<g id="node4" class="node">
<title>ProjectModalModule </title>
<polygon fill="#fb8072" stroke="#000000" points="404.2534,-252 264.7466,-252 264.7466,-216 404.2534,-216 404.2534,-252"/>
<text text-anchor="middle" x="334.5" y="-229.8" font-family="Times,serif" font-size="14.00" fill="#000000">ProjectModalModule </text>
</g>
<!-- ProjectsGridModule&#45;&gt;ProjectModalModule  -->
<g id="edge3" class="edge">
<title>ProjectsGridModule&#45;&gt;ProjectModalModule </title>
<path fill="none" stroke="#000000" stroke-dasharray="5,2" d="M289.2632,-187.1061C289.2632,-187.1061 289.2632,-205.991 289.2632,-205.991"/>
<polygon fill="#000000" stroke="#000000" points="285.7632,-205.9909 289.2632,-215.991 292.7632,-205.991 285.7632,-205.9909"/>
</g>
<!-- ProjectsGridComponent  -->
<g id="node5" class="node">
<title>ProjectsGridComponent </title>
<polygon fill="#fb8072" stroke="#000000" points="247.0889,-252 91.9111,-252 91.9111,-216 247.0889,-216 247.0889,-252"/>
<text text-anchor="middle" x="169.5" y="-229.8" font-family="Times,serif" font-size="14.00" fill="#000000">ProjectsGridComponent </text>
</g>
<!-- ProjectsGridModule&#45;&gt;ProjectsGridComponent  -->
<g id="edge4" class="edge">
<title>ProjectsGridModule&#45;&gt;ProjectsGridComponent </title>
<path fill="none" stroke="#000000" stroke-dasharray="5,2" d="M215.3207,-187.1061C215.3207,-187.1061 215.3207,-205.991 215.3207,-205.991"/>
<polygon fill="#000000" stroke="#000000" points="211.8207,-205.9909 215.3207,-215.991 218.8207,-205.991 211.8207,-205.9909"/>
</g>
<!-- ProjectModalModule -->
<g id="node3" class="node">
<title>ProjectModalModule</title>
<polygon fill="#8dd3c7" stroke="#000000" points="228.2534,-122 225.2534,-126 204.2534,-126 201.2534,-122 92.7466,-122 92.7466,-86 228.2534,-86 228.2534,-122"/>
<text text-anchor="middle" x="160.5" y="-99.8" font-family="Times,serif" font-size="14.00" fill="#000000">ProjectModalModule</text>
</g>
<!-- ProjectModalModule&#45;&gt;ProjectsGridModule -->
<g id="edge2" class="edge">
<title>ProjectModalModule&#45;&gt;ProjectsGridModule</title>
<path fill="none" stroke="#000000" d="M205.8619,-122.1061C205.8619,-122.1061 205.8619,-140.991 205.8619,-140.991"/>
<polygon fill="#000000" stroke="#000000" points="202.3619,-140.9909 205.8619,-150.991 209.3619,-140.991 202.3619,-140.9909"/>
</g>
</g>
</svg>
