<?xml version="1.0" encoding="UTF-8" standalone="no"?>
<!DOCTYPE svg PUBLIC "-//W3C//DTD SVG 1.1//EN"
 "http://www.w3.org/Graphics/SVG/1.1/DTD/svg11.dtd">
<!-- Generated by graphviz version 2.40.1 (20161225.0304)
 -->
<!-- Title: dependencies Pages: 1 -->
<svg width="504pt" height="284pt"
 viewBox="0.00 0.00 504.00 284.00" xmlns="http://www.w3.org/2000/svg" xmlns:xlink="http://www.w3.org/1999/xlink">
<g id="graph0" class="graph" transform="scale(1 1) rotate(0) translate(4 280)">
<title>dependencies</title>
<polygon fill="#ffffff" stroke="transparent" points="-4,4 -4,-280 500,-280 500,4 -4,4"/>
<text text-anchor="start" x="227.0091" y="-42.4" font-family="sans-serif" font-weight="bold" font-size="14.00" fill="#000000">Legend</text>
<polygon fill="#ffffb3" stroke="transparent" points="14,-10 14,-30 34,-30 34,-10 14,-10"/>
<text text-anchor="start" x="37.629" y="-15.4" font-family="sans-serif" font-size="14.00" fill="#000000"> &#160;Declarations</text>
<polygon fill="#8dd3c7" stroke="transparent" points="127,-10 127,-30 147,-30 147,-10 127,-10"/>
<text text-anchor="start" x="150.7251" y="-15.4" font-family="sans-serif" font-size="14.00" fill="#000000"> &#160;Module</text>
<polygon fill="#80b1d3" stroke="transparent" points="213,-10 213,-30 233,-30 233,-10 213,-10"/>
<text text-anchor="start" x="236.7812" y="-15.4" font-family="sans-serif" font-size="14.00" fill="#000000"> &#160;Bootstrap</text>
<polygon fill="#fdb462" stroke="transparent" points="310,-10 310,-30 330,-30 330,-10 310,-10"/>
<text text-anchor="start" x="333.6732" y="-15.4" font-family="sans-serif" font-size="14.00" fill="#000000"> &#160;Providers</text>
<polygon fill="#fb8072" stroke="transparent" points="406,-10 406,-30 426,-30 426,-10 406,-10"/>
<text text-anchor="start" x="429.7258" y="-15.4" font-family="sans-serif" font-size="14.00" fill="#000000"> &#160;Exports</text>
<g id="clust1" class="cluster">
<title>cluster_StatusesGridModule</title>
<polygon fill="none" stroke="#000000" stroke-dasharray="1,5" points="78,-70 78,-268 418,-268 418,-70 78,-70"/>
</g>
<g id="clust2" class="cluster">
<title>cluster_StatusesGridModule_declarations</title>
<polygon fill="none" stroke="#000000" points="241,-78 241,-130 409,-130 409,-78 241,-78"/>
</g>
<g id="clust4" class="cluster">
<title>cluster_StatusesGridModule_imports</title>
<polygon fill="none" stroke="#000000" points="87,-78 87,-130 233,-130 233,-78 87,-78"/>
</g>
<g id="clust5" class="cluster">
<title>cluster_StatusesGridModule_exports</title>
<polygon fill="none" stroke="#000000" points="86,-208 86,-260 410,-260 410,-208 86,-208"/>
</g>
<!-- StatusesGridComponent -->
<g id="node1" class="node">
<title>StatusesGridComponent</title>
<polygon fill="#ffffb3" stroke="#000000" points="401.3725,-122 248.6275,-122 248.6275,-86 401.3725,-86 401.3725,-122"/>
<text text-anchor="middle" x="325" y="-99.8" font-family="Times,serif" font-size="14.00" fill="#000000">StatusesGridComponent</text>
</g>
<!-- StatusesGridModule -->
<g id="node2" class="node">
<title>StatusesGridModule</title>
<polygon fill="#8dd3c7" stroke="#000000" points="313.5898,-187 310.5898,-191 289.5898,-191 286.5898,-187 182.4102,-187 182.4102,-151 313.5898,-151 313.5898,-187"/>
<text text-anchor="middle" x="248" y="-164.8" font-family="Times,serif" font-size="14.00" fill="#000000">StatusesGridModule</text>
</g>
<!-- StatusesGridComponent&#45;&gt;StatusesGridModule -->
<g id="edge1" class="edge">
<title>StatusesGridComponent&#45;&gt;StatusesGridModule</title>
<path fill="none" stroke="#000000" d="M281.0544,-122.1061C281.0544,-122.1061 281.0544,-140.991 281.0544,-140.991"/>
<polygon fill="#000000" stroke="#000000" points="277.5544,-140.9909 281.0544,-150.991 284.5544,-140.991 277.5544,-140.9909"/>
</g>
<!-- StatusModalModule  -->
<g id="node4" class="node">
<title>StatusModalModule </title>
<polygon fill="#fb8072" stroke="#000000" points="401.8227,-252 268.1773,-252 268.1773,-216 401.8227,-216 401.8227,-252"/>
<text text-anchor="middle" x="335" y="-229.8" font-family="Times,serif" font-size="14.00" fill="#000000">StatusModalModule </text>
</g>
<!-- StatusesGridModule&#45;&gt;StatusModalModule  -->
<g id="edge3" class="edge">
<title>StatusesGridModule&#45;&gt;StatusModalModule </title>
<path fill="none" stroke="#000000" stroke-dasharray="5,2" d="M290.8168,-187.1061C290.8168,-187.1061 290.8168,-205.991 290.8168,-205.991"/>
<polygon fill="#000000" stroke="#000000" points="287.3169,-205.9909 290.8168,-215.991 294.3169,-205.991 287.3169,-205.9909"/>
</g>
<!-- StatusesGridComponent  -->
<g id="node5" class="node">
<title>StatusesGridComponent </title>
<polygon fill="#fb8072" stroke="#000000" points="250.3728,-252 93.6272,-252 93.6272,-216 250.3728,-216 250.3728,-252"/>
<text text-anchor="middle" x="172" y="-229.8" font-family="Times,serif" font-size="14.00" fill="#000000">StatusesGridComponent </text>
</g>
<!-- StatusesGridModule&#45;&gt;StatusesGridComponent  -->
<g id="edge4" class="edge">
<title>StatusesGridModule&#45;&gt;StatusesGridComponent </title>
<path fill="none" stroke="#000000" stroke-dasharray="5,2" d="M216.3207,-187.1061C216.3207,-187.1061 216.3207,-205.991 216.3207,-205.991"/>
<polygon fill="#000000" stroke="#000000" points="212.8207,-205.9909 216.3207,-215.991 219.8207,-205.991 212.8207,-205.9909"/>
</g>
<!-- StatusModalModule -->
<g id="node3" class="node">
<title>StatusModalModule</title>
<polygon fill="#8dd3c7" stroke="#000000" points="225.323,-122 222.323,-126 201.323,-126 198.323,-122 94.677,-122 94.677,-86 225.323,-86 225.323,-122"/>
<text text-anchor="middle" x="160" y="-99.8" font-family="Times,serif" font-size="14.00" fill="#000000">StatusModalModule</text>
</g>
<!-- StatusModalModule&#45;&gt;StatusesGridModule -->
<g id="edge2" class="edge">
<title>StatusModalModule&#45;&gt;StatusesGridModule</title>
<path fill="none" stroke="#000000" d="M203.8082,-122.1061C203.8082,-122.1061 203.8082,-140.991 203.8082,-140.991"/>
<polygon fill="#000000" stroke="#000000" points="200.3083,-140.9909 203.8082,-150.991 207.3083,-140.991 200.3083,-140.9909"/>
</g>
</g>
</svg>
