<?xml version="1.0" encoding="UTF-8" standalone="no"?>
<!DOCTYPE svg PUBLIC "-//W3C//DTD SVG 1.1//EN"
 "http://www.w3.org/Graphics/SVG/1.1/DTD/svg11.dtd">
<!-- Generated by graphviz version 2.40.1 (20161225.0304)
 -->
<!-- Title: dependencies Pages: 1 -->
<svg width="504pt" height="284pt"
 viewBox="0.00 0.00 504.00 284.00" xmlns="http://www.w3.org/2000/svg" xmlns:xlink="http://www.w3.org/1999/xlink">
<g id="graph0" class="graph" transform="scale(1 1) rotate(0) translate(4 280)">
<title>dependencies</title>
<polygon fill="#ffffff" stroke="transparent" points="-4,4 -4,-280 500,-280 500,4 -4,4"/>
<text text-anchor="start" x="227.0091" y="-42.4" font-family="sans-serif" font-weight="bold" font-size="14.00" fill="#000000">Legend</text>
<polygon fill="#ffffb3" stroke="transparent" points="14,-10 14,-30 34,-30 34,-10 14,-10"/>
<text text-anchor="start" x="37.629" y="-15.4" font-family="sans-serif" font-size="14.00" fill="#000000"> &#160;Declarations</text>
<polygon fill="#8dd3c7" stroke="transparent" points="127,-10 127,-30 147,-30 147,-10 127,-10"/>
<text text-anchor="start" x="150.7251" y="-15.4" font-family="sans-serif" font-size="14.00" fill="#000000"> &#160;Module</text>
<polygon fill="#80b1d3" stroke="transparent" points="213,-10 213,-30 233,-30 233,-10 213,-10"/>
<text text-anchor="start" x="236.7812" y="-15.4" font-family="sans-serif" font-size="14.00" fill="#000000"> &#160;Bootstrap</text>
<polygon fill="#fdb462" stroke="transparent" points="310,-10 310,-30 330,-30 330,-10 310,-10"/>
<text text-anchor="start" x="333.6732" y="-15.4" font-family="sans-serif" font-size="14.00" fill="#000000"> &#160;Providers</text>
<polygon fill="#fb8072" stroke="transparent" points="406,-10 406,-30 426,-30 426,-10 406,-10"/>
<text text-anchor="start" x="429.7258" y="-15.4" font-family="sans-serif" font-size="14.00" fill="#000000"> &#160;Exports</text>
<g id="clust1" class="cluster">
<title>cluster_StatusInputModule</title>
<polygon fill="none" stroke="#000000" stroke-dasharray="1,5" points="63,-70 63,-268 433,-268 433,-70 63,-70"/>
</g>
<g id="clust2" class="cluster">
<title>cluster_StatusInputModule_declarations</title>
<polygon fill="none" stroke="#000000" points="263,-78 263,-130 425,-130 425,-78 263,-78"/>
</g>
<g id="clust4" class="cluster">
<title>cluster_StatusInputModule_imports</title>
<polygon fill="none" stroke="#000000" points="71,-78 71,-130 255,-130 255,-78 71,-78"/>
</g>
<g id="clust5" class="cluster">
<title>cluster_StatusInputModule_exports</title>
<polygon fill="none" stroke="#000000" points="71,-208 71,-260 425,-260 425,-208 71,-208"/>
</g>
<!-- StatusInputComponent -->
<g id="node1" class="node">
<title>StatusInputComponent</title>
<polygon fill="#ffffb3" stroke="#000000" points="416.6066,-122 271.3934,-122 271.3934,-86 416.6066,-86 416.6066,-122"/>
<text text-anchor="middle" x="344" y="-99.8" font-family="Times,serif" font-size="14.00" fill="#000000">StatusInputComponent</text>
</g>
<!-- StatusInputModule -->
<g id="node2" class="node">
<title>StatusInputModule</title>
<polygon fill="#8dd3c7" stroke="#000000" points="315.8244,-187 312.8244,-191 291.8244,-191 288.8244,-187 192.1756,-187 192.1756,-151 315.8244,-151 315.8244,-187"/>
<text text-anchor="middle" x="254" y="-164.8" font-family="Times,serif" font-size="14.00" fill="#000000">StatusInputModule</text>
</g>
<!-- StatusInputComponent&#45;&gt;StatusInputModule -->
<g id="edge1" class="edge">
<title>StatusInputComponent&#45;&gt;StatusInputModule</title>
<path fill="none" stroke="#000000" d="M293.5544,-122.1061C293.5544,-122.1061 293.5544,-140.991 293.5544,-140.991"/>
<polygon fill="#000000" stroke="#000000" points="290.0544,-140.9909 293.5544,-150.991 297.0544,-140.991 290.0544,-140.9909"/>
</g>
<!-- StatusInputComponent  -->
<g id="node4" class="node">
<title>StatusInputComponent </title>
<polygon fill="#fb8072" stroke="#000000" points="417.1071,-252 268.8929,-252 268.8929,-216 417.1071,-216 417.1071,-252"/>
<text text-anchor="middle" x="343" y="-229.8" font-family="Times,serif" font-size="14.00" fill="#000000">StatusInputComponent </text>
</g>
<!-- StatusInputModule&#45;&gt;StatusInputComponent  -->
<g id="edge3" class="edge">
<title>StatusInputModule&#45;&gt;StatusInputComponent </title>
<path fill="none" stroke="#000000" stroke-dasharray="5,2" d="M292.1794,-187.1061C292.1794,-187.1061 292.1794,-205.991 292.1794,-205.991"/>
<polygon fill="#000000" stroke="#000000" points="288.6794,-205.9909 292.1794,-215.991 295.6794,-205.991 288.6794,-205.9909"/>
</g>
<!-- StatusesGridModalModule  -->
<g id="node5" class="node">
<title>StatusesGridModalModule </title>
<polygon fill="#fb8072" stroke="#000000" points="250.6397,-252 79.3603,-252 79.3603,-216 250.6397,-216 250.6397,-252"/>
<text text-anchor="middle" x="165" y="-229.8" font-family="Times,serif" font-size="14.00" fill="#000000">StatusesGridModalModule </text>
</g>
<!-- StatusInputModule&#45;&gt;StatusesGridModalModule  -->
<g id="edge4" class="edge">
<title>StatusInputModule&#45;&gt;StatusesGridModalModule </title>
<path fill="none" stroke="#000000" stroke-dasharray="5,2" d="M221.4539,-187.1061C221.4539,-187.1061 221.4539,-205.991 221.4539,-205.991"/>
<polygon fill="#000000" stroke="#000000" points="217.954,-205.9909 221.4539,-215.991 224.954,-205.991 217.954,-205.9909"/>
</g>
<!-- StatusesGridModalModule -->
<g id="node3" class="node">
<title>StatusesGridModalModule</title>
<polygon fill="#8dd3c7" stroke="#000000" points="246.64,-122 243.64,-126 222.64,-126 219.64,-122 79.36,-122 79.36,-86 246.64,-86 246.64,-122"/>
<text text-anchor="middle" x="163" y="-99.8" font-family="Times,serif" font-size="14.00" fill="#000000">StatusesGridModalModule</text>
</g>
<!-- StatusesGridModalModule&#45;&gt;StatusInputModule -->
<g id="edge2" class="edge">
<title>StatusesGridModalModule&#45;&gt;StatusInputModule</title>
<path fill="none" stroke="#000000" d="M219.5789,-122.1061C219.5789,-122.1061 219.5789,-140.991 219.5789,-140.991"/>
<polygon fill="#000000" stroke="#000000" points="216.079,-140.9909 219.5789,-150.991 223.079,-140.991 216.079,-140.9909"/>
</g>
</g>
</svg>
