<?xml version="1.0" encoding="UTF-8" standalone="no"?>
<!DOCTYPE svg PUBLIC "-//W3C//DTD SVG 1.1//EN"
 "http://www.w3.org/Graphics/SVG/1.1/DTD/svg11.dtd">
<!-- Generated by graphviz version 2.40.1 (20161225.0304)
 -->
<!-- Title: dependencies Pages: 1 -->
<svg width="504pt" height="284pt"
 viewBox="0.00 0.00 504.00 284.00" xmlns="http://www.w3.org/2000/svg" xmlns:xlink="http://www.w3.org/1999/xlink">
<g id="graph0" class="graph" transform="scale(1 1) rotate(0) translate(4 280)">
<title>dependencies</title>
<polygon fill="#ffffff" stroke="transparent" points="-4,4 -4,-280 500,-280 500,4 -4,4"/>
<text text-anchor="start" x="227.0091" y="-42.4" font-family="sans-serif" font-weight="bold" font-size="14.00" fill="#000000">Legend</text>
<polygon fill="#ffffb3" stroke="transparent" points="14,-10 14,-30 34,-30 34,-10 14,-10"/>
<text text-anchor="start" x="37.629" y="-15.4" font-family="sans-serif" font-size="14.00" fill="#000000"> &#160;Declarations</text>
<polygon fill="#8dd3c7" stroke="transparent" points="127,-10 127,-30 147,-30 147,-10 127,-10"/>
<text text-anchor="start" x="150.7251" y="-15.4" font-family="sans-serif" font-size="14.00" fill="#000000"> &#160;Module</text>
<polygon fill="#80b1d3" stroke="transparent" points="213,-10 213,-30 233,-30 233,-10 213,-10"/>
<text text-anchor="start" x="236.7812" y="-15.4" font-family="sans-serif" font-size="14.00" fill="#000000"> &#160;Bootstrap</text>
<polygon fill="#fdb462" stroke="transparent" points="310,-10 310,-30 330,-30 330,-10 310,-10"/>
<text text-anchor="start" x="333.6732" y="-15.4" font-family="sans-serif" font-size="14.00" fill="#000000"> &#160;Providers</text>
<polygon fill="#fb8072" stroke="transparent" points="406,-10 406,-30 426,-30 426,-10 406,-10"/>
<text text-anchor="start" x="429.7258" y="-15.4" font-family="sans-serif" font-size="14.00" fill="#000000"> &#160;Exports</text>
<g id="clust1" class="cluster">
<title>cluster_TasksGridModule</title>
<polygon fill="none" stroke="#000000" stroke-dasharray="1,5" points="88,-70 88,-268 408,-268 408,-70 88,-70"/>
</g>
<g id="clust2" class="cluster">
<title>cluster_TasksGridModule_declarations</title>
<polygon fill="none" stroke="#000000" points="244,-78 244,-130 400,-130 400,-78 244,-78"/>
</g>
<g id="clust4" class="cluster">
<title>cluster_TasksGridModule_imports</title>
<polygon fill="none" stroke="#000000" points="96,-78 96,-130 236,-130 236,-78 96,-78"/>
</g>
<g id="clust5" class="cluster">
<title>cluster_TasksGridModule_exports</title>
<polygon fill="none" stroke="#000000" points="96,-208 96,-260 400,-260 400,-208 96,-208"/>
</g>
<!-- TasksGridComponent -->
<g id="node1" class="node">
<title>TasksGridComponent</title>
<polygon fill="#ffffb3" stroke="#000000" points="391.647,-122 252.353,-122 252.353,-86 391.647,-86 391.647,-122"/>
<text text-anchor="middle" x="322" y="-99.8" font-family="Times,serif" font-size="14.00" fill="#000000">TasksGridComponent</text>
</g>
<!-- TasksGridModule -->
<g id="node2" class="node">
<title>TasksGridModule</title>
<polygon fill="#8dd3c7" stroke="#000000" points="307.8641,-187 304.8641,-191 283.8641,-191 280.8641,-187 190.1359,-187 190.1359,-151 307.8641,-151 307.8641,-187"/>
<text text-anchor="middle" x="249" y="-164.8" font-family="Times,serif" font-size="14.00" fill="#000000">TasksGridModule</text>
</g>
<!-- TasksGridComponent&#45;&gt;TasksGridModule -->
<g id="edge1" class="edge">
<title>TasksGridComponent&#45;&gt;TasksGridModule</title>
<path fill="none" stroke="#000000" d="M280.0544,-122.1061C280.0544,-122.1061 280.0544,-140.991 280.0544,-140.991"/>
<polygon fill="#000000" stroke="#000000" points="276.5544,-140.9909 280.0544,-150.991 283.5544,-140.991 276.5544,-140.9909"/>
</g>
<!-- TaskModalModule  -->
<g id="node4" class="node">
<title>TaskModalModule </title>
<polygon fill="#fb8072" stroke="#000000" points="392.3115,-252 265.6885,-252 265.6885,-216 392.3115,-216 392.3115,-252"/>
<text text-anchor="middle" x="329" y="-229.8" font-family="Times,serif" font-size="14.00" fill="#000000">TaskModalModule </text>
</g>
<!-- TasksGridModule&#45;&gt;TaskModalModule  -->
<g id="edge3" class="edge">
<title>TasksGridModule&#45;&gt;TaskModalModule </title>
<path fill="none" stroke="#000000" stroke-dasharray="5,2" d="M286.7632,-187.1061C286.7632,-187.1061 286.7632,-205.991 286.7632,-205.991"/>
<polygon fill="#000000" stroke="#000000" points="283.2632,-205.9909 286.7632,-215.991 290.2632,-205.991 283.2632,-205.9909"/>
</g>
<!-- TasksGridComponent  -->
<g id="node5" class="node">
<title>TasksGridComponent </title>
<polygon fill="#fb8072" stroke="#000000" points="247.6467,-252 104.3533,-252 104.3533,-216 247.6467,-216 247.6467,-252"/>
<text text-anchor="middle" x="176" y="-229.8" font-family="Times,serif" font-size="14.00" fill="#000000">TasksGridComponent </text>
</g>
<!-- TasksGridModule&#45;&gt;TasksGridComponent  -->
<g id="edge4" class="edge">
<title>TasksGridModule&#45;&gt;TasksGridComponent </title>
<path fill="none" stroke="#000000" stroke-dasharray="5,2" d="M218.8207,-187.1061C218.8207,-187.1061 218.8207,-205.991 218.8207,-205.991"/>
<polygon fill="#000000" stroke="#000000" points="215.3207,-205.9909 218.8207,-215.991 222.3207,-205.991 215.3207,-205.9909"/>
</g>
<!-- TaskModalModule -->
<g id="node3" class="node">
<title>TaskModalModule</title>
<polygon fill="#8dd3c7" stroke="#000000" points="227.8118,-122 224.8118,-126 203.8118,-126 200.8118,-122 104.1882,-122 104.1882,-86 227.8118,-86 227.8118,-122"/>
<text text-anchor="middle" x="166" y="-99.8" font-family="Times,serif" font-size="14.00" fill="#000000">TaskModalModule</text>
</g>
<!-- TaskModalModule&#45;&gt;TasksGridModule -->
<g id="edge2" class="edge">
<title>TaskModalModule&#45;&gt;TasksGridModule</title>
<path fill="none" stroke="#000000" d="M208.8619,-122.1061C208.8619,-122.1061 208.8619,-140.991 208.8619,-140.991"/>
<polygon fill="#000000" stroke="#000000" points="205.3619,-140.9909 208.8619,-150.991 212.3619,-140.991 205.3619,-140.9909"/>
</g>
</g>
</svg>
