<?xml version="1.0" encoding="UTF-8" standalone="no"?>
<!DOCTYPE svg PUBLIC "-//W3C//DTD SVG 1.1//EN"
 "http://www.w3.org/Graphics/SVG/1.1/DTD/svg11.dtd">
<!-- Generated by graphviz version 2.40.1 (20161225.0304)
 -->
<!-- Title: dependencies Pages: 1 -->
<svg width="504pt" height="284pt"
 viewBox="0.00 0.00 504.00 284.00" xmlns="http://www.w3.org/2000/svg" xmlns:xlink="http://www.w3.org/1999/xlink">
<g id="graph0" class="graph" transform="scale(1 1) rotate(0) translate(4 280)">
<title>dependencies</title>
<polygon fill="#ffffff" stroke="transparent" points="-4,4 -4,-280 500,-280 500,4 -4,4"/>
<text text-anchor="start" x="227.0091" y="-42.4" font-family="sans-serif" font-weight="bold" font-size="14.00" fill="#000000">Legend</text>
<polygon fill="#ffffb3" stroke="transparent" points="14,-10 14,-30 34,-30 34,-10 14,-10"/>
<text text-anchor="start" x="37.629" y="-15.4" font-family="sans-serif" font-size="14.00" fill="#000000"> &#160;Declarations</text>
<polygon fill="#8dd3c7" stroke="transparent" points="127,-10 127,-30 147,-30 147,-10 127,-10"/>
<text text-anchor="start" x="150.7251" y="-15.4" font-family="sans-serif" font-size="14.00" fill="#000000"> &#160;Module</text>
<polygon fill="#80b1d3" stroke="transparent" points="213,-10 213,-30 233,-30 233,-10 213,-10"/>
<text text-anchor="start" x="236.7812" y="-15.4" font-family="sans-serif" font-size="14.00" fill="#000000"> &#160;Bootstrap</text>
<polygon fill="#fdb462" stroke="transparent" points="310,-10 310,-30 330,-30 330,-10 310,-10"/>
<text text-anchor="start" x="333.6732" y="-15.4" font-family="sans-serif" font-size="14.00" fill="#000000"> &#160;Providers</text>
<polygon fill="#fb8072" stroke="transparent" points="406,-10 406,-30 426,-30 426,-10 406,-10"/>
<text text-anchor="start" x="429.7258" y="-15.4" font-family="sans-serif" font-size="14.00" fill="#000000"> &#160;Exports</text>
<g id="clust1" class="cluster">
<title>cluster_TaskSelectModule</title>
<polygon fill="none" stroke="#000000" stroke-dasharray="1,5" points="71,-70 71,-268 425,-268 425,-70 71,-70"/>
</g>
<g id="clust2" class="cluster">
<title>cluster_TaskSelectModule_declarations</title>
<polygon fill="none" stroke="#000000" points="258,-78 258,-130 416,-130 416,-78 258,-78"/>
</g>
<g id="clust4" class="cluster">
<title>cluster_TaskSelectModule_imports</title>
<polygon fill="none" stroke="#000000" points="80,-78 80,-130 250,-130 250,-78 80,-78"/>
</g>
<g id="clust5" class="cluster">
<title>cluster_TaskSelectModule_exports</title>
<polygon fill="none" stroke="#000000" points="79,-208 79,-260 417,-260 417,-208 79,-208"/>
</g>
<!-- TaskSelectComponent -->
<g id="node1" class="node">
<title>TaskSelectComponent</title>
<polygon fill="#ffffb3" stroke="#000000" points="408.252,-122 265.748,-122 265.748,-86 408.252,-86 408.252,-122"/>
<text text-anchor="middle" x="337" y="-99.8" font-family="Times,serif" font-size="14.00" fill="#000000">TaskSelectComponent</text>
</g>
<!-- TaskSelectModule -->
<g id="node2" class="node">
<title>TaskSelectModule</title>
<polygon fill="#8dd3c7" stroke="#000000" points="311.4692,-187 308.4692,-191 287.4692,-191 284.4692,-187 190.5308,-187 190.5308,-151 311.4692,-151 311.4692,-187"/>
<text text-anchor="middle" x="251" y="-164.8" font-family="Times,serif" font-size="14.00" fill="#000000">TaskSelectModule</text>
</g>
<!-- TaskSelectComponent&#45;&gt;TaskSelectModule -->
<g id="edge1" class="edge">
<title>TaskSelectComponent&#45;&gt;TaskSelectModule</title>
<path fill="none" stroke="#000000" d="M288.5544,-122.1061C288.5544,-122.1061 288.5544,-140.991 288.5544,-140.991"/>
<polygon fill="#000000" stroke="#000000" points="285.0544,-140.9909 288.5544,-150.991 292.0544,-140.991 285.0544,-140.9909"/>
</g>
<!-- TaskSelectComponent  -->
<g id="node4" class="node">
<title>TaskSelectComponent </title>
<polygon fill="#fb8072" stroke="#000000" points="409.252,-252 262.748,-252 262.748,-216 409.252,-216 409.252,-252"/>
<text text-anchor="middle" x="336" y="-229.8" font-family="Times,serif" font-size="14.00" fill="#000000">TaskSelectComponent </text>
</g>
<!-- TaskSelectModule&#45;&gt;TaskSelectComponent  -->
<g id="edge3" class="edge">
<title>TaskSelectModule&#45;&gt;TaskSelectComponent </title>
<path fill="none" stroke="#000000" stroke-dasharray="5,2" d="M287.1794,-187.1061C287.1794,-187.1061 287.1794,-205.991 287.1794,-205.991"/>
<polygon fill="#000000" stroke="#000000" points="283.6794,-205.9909 287.1794,-215.991 290.6794,-205.991 283.6794,-205.9909"/>
</g>
<!-- TasksGridModalModule  -->
<g id="node5" class="node">
<title>TasksGridModalModule </title>
<polygon fill="#fb8072" stroke="#000000" points="244.9138,-252 87.0862,-252 87.0862,-216 244.9138,-216 244.9138,-252"/>
<text text-anchor="middle" x="166" y="-229.8" font-family="Times,serif" font-size="14.00" fill="#000000">TasksGridModalModule </text>
</g>
<!-- TaskSelectModule&#45;&gt;TasksGridModalModule  -->
<g id="edge4" class="edge">
<title>TaskSelectModule&#45;&gt;TasksGridModalModule </title>
<path fill="none" stroke="#000000" stroke-dasharray="5,2" d="M217.7362,-187.1061C217.7362,-187.1061 217.7362,-205.991 217.7362,-205.991"/>
<polygon fill="#000000" stroke="#000000" points="214.2362,-205.9909 217.7362,-215.991 221.2362,-205.991 214.2362,-205.9909"/>
</g>
<!-- TasksGridModalModule -->
<g id="node3" class="node">
<title>TasksGridModalModule</title>
<polygon fill="#8dd3c7" stroke="#000000" points="242.4144,-122 239.4144,-126 218.4144,-126 215.4144,-122 87.5856,-122 87.5856,-86 242.4144,-86 242.4144,-122"/>
<text text-anchor="middle" x="165" y="-99.8" font-family="Times,serif" font-size="14.00" fill="#000000">TasksGridModalModule</text>
</g>
<!-- TasksGridModalModule&#45;&gt;TaskSelectModule -->
<g id="edge2" class="edge">
<title>TasksGridModalModule&#45;&gt;TaskSelectModule</title>
<path fill="none" stroke="#000000" d="M216.3612,-122.1061C216.3612,-122.1061 216.3612,-140.991 216.3612,-140.991"/>
<polygon fill="#000000" stroke="#000000" points="212.8612,-140.9909 216.3612,-150.991 219.8612,-140.991 212.8612,-140.9909"/>
</g>
</g>
</svg>
