<?xml version="1.0" encoding="UTF-8" standalone="no"?>
<!DOCTYPE svg PUBLIC "-//W3C//DTD SVG 1.1//EN"
 "http://www.w3.org/Graphics/SVG/1.1/DTD/svg11.dtd">
<!-- Generated by graphviz version 2.40.1 (20161225.0304)
 -->
<!-- Title: dependencies Pages: 1 -->
<svg width="504pt" height="284pt"
 viewBox="0.00 0.00 504.00 284.00" xmlns="http://www.w3.org/2000/svg" xmlns:xlink="http://www.w3.org/1999/xlink">
<g id="graph0" class="graph" transform="scale(1 1) rotate(0) translate(4 280)">
<title>dependencies</title>
<polygon fill="#ffffff" stroke="transparent" points="-4,4 -4,-280 500,-280 500,4 -4,4"/>
<text text-anchor="start" x="227.0091" y="-42.4" font-family="sans-serif" font-weight="bold" font-size="14.00" fill="#000000">Legend</text>
<polygon fill="#ffffb3" stroke="transparent" points="14,-10 14,-30 34,-30 34,-10 14,-10"/>
<text text-anchor="start" x="37.629" y="-15.4" font-family="sans-serif" font-size="14.00" fill="#000000"> &#160;Declarations</text>
<polygon fill="#8dd3c7" stroke="transparent" points="127,-10 127,-30 147,-30 147,-10 127,-10"/>
<text text-anchor="start" x="150.7251" y="-15.4" font-family="sans-serif" font-size="14.00" fill="#000000"> &#160;Module</text>
<polygon fill="#80b1d3" stroke="transparent" points="213,-10 213,-30 233,-30 233,-10 213,-10"/>
<text text-anchor="start" x="236.7812" y="-15.4" font-family="sans-serif" font-size="14.00" fill="#000000"> &#160;Bootstrap</text>
<polygon fill="#fdb462" stroke="transparent" points="310,-10 310,-30 330,-30 330,-10 310,-10"/>
<text text-anchor="start" x="333.6732" y="-15.4" font-family="sans-serif" font-size="14.00" fill="#000000"> &#160;Providers</text>
<polygon fill="#fb8072" stroke="transparent" points="406,-10 406,-30 426,-30 426,-10 406,-10"/>
<text text-anchor="start" x="429.7258" y="-15.4" font-family="sans-serif" font-size="14.00" fill="#000000"> &#160;Exports</text>
<g id="clust1" class="cluster">
<title>cluster_ProjectInputModule</title>
<polygon fill="none" stroke="#000000" stroke-dasharray="1,5" points="61,-70 61,-268 435,-268 435,-70 61,-70"/>
</g>
<g id="clust2" class="cluster">
<title>cluster_ProjectInputModule_declarations</title>
<polygon fill="none" stroke="#000000" points="260,-78 260,-130 426,-130 426,-78 260,-78"/>
</g>
<g id="clust4" class="cluster">
<title>cluster_ProjectInputModule_imports</title>
<polygon fill="none" stroke="#000000" points="70,-78 70,-130 252,-130 252,-78 70,-78"/>
</g>
<g id="clust5" class="cluster">
<title>cluster_ProjectInputModule_exports</title>
<polygon fill="none" stroke="#000000" points="69,-208 69,-260 427,-260 427,-208 69,-208"/>
</g>
<!-- ProjectInputComponent -->
<g id="node1" class="node">
<title>ProjectInputComponent</title>
<polygon fill="#ffffb3" stroke="#000000" points="418.0379,-122 267.9621,-122 267.9621,-86 418.0379,-86 418.0379,-122"/>
<text text-anchor="middle" x="343" y="-99.8" font-family="Times,serif" font-size="14.00" fill="#000000">ProjectInputComponent</text>
</g>
<!-- ProjectInputModule -->
<g id="node2" class="node">
<title>ProjectInputModule</title>
<polygon fill="#8dd3c7" stroke="#000000" points="316.2548,-187 313.2548,-191 292.2548,-191 289.2548,-187 187.7452,-187 187.7452,-151 316.2548,-151 316.2548,-187"/>
<text text-anchor="middle" x="252" y="-164.8" font-family="Times,serif" font-size="14.00" fill="#000000">ProjectInputModule</text>
</g>
<!-- ProjectInputComponent&#45;&gt;ProjectInputModule -->
<g id="edge1" class="edge">
<title>ProjectInputComponent&#45;&gt;ProjectInputModule</title>
<path fill="none" stroke="#000000" d="M292.0544,-122.1061C292.0544,-122.1061 292.0544,-140.991 292.0544,-140.991"/>
<polygon fill="#000000" stroke="#000000" points="288.5544,-140.9909 292.0544,-150.991 295.5544,-140.991 288.5544,-140.9909"/>
</g>
<!-- ProjectInputComponent  -->
<g id="node4" class="node">
<title>ProjectInputComponent </title>
<polygon fill="#fb8072" stroke="#000000" points="419.0372,-252 264.9628,-252 264.9628,-216 419.0372,-216 419.0372,-252"/>
<text text-anchor="middle" x="342" y="-229.8" font-family="Times,serif" font-size="14.00" fill="#000000">ProjectInputComponent </text>
</g>
<!-- ProjectInputModule&#45;&gt;ProjectInputComponent  -->
<g id="edge3" class="edge">
<title>ProjectInputModule&#45;&gt;ProjectInputComponent </title>
<path fill="none" stroke="#000000" stroke-dasharray="5,2" d="M290.6794,-187.1061C290.6794,-187.1061 290.6794,-205.991 290.6794,-205.991"/>
<polygon fill="#000000" stroke="#000000" points="287.1794,-205.9909 290.6794,-215.991 294.1794,-205.991 287.1794,-205.9909"/>
</g>
<!-- ProjectsGridModalModule  -->
<g id="node5" class="node">
<title>ProjectsGridModalModule </title>
<polygon fill="#fb8072" stroke="#000000" points="247.356,-252 76.644,-252 76.644,-216 247.356,-216 247.356,-252"/>
<text text-anchor="middle" x="162" y="-229.8" font-family="Times,serif" font-size="14.00" fill="#000000">ProjectsGridModalModule </text>
</g>
<!-- ProjectInputModule&#45;&gt;ProjectsGridModalModule  -->
<g id="edge4" class="edge">
<title>ProjectInputModule&#45;&gt;ProjectsGridModalModule </title>
<path fill="none" stroke="#000000" stroke-dasharray="5,2" d="M217.4003,-187.1061C217.4003,-187.1061 217.4003,-205.991 217.4003,-205.991"/>
<polygon fill="#000000" stroke="#000000" points="213.9003,-205.9909 217.4003,-215.991 220.9003,-205.991 213.9003,-205.9909"/>
</g>
<!-- ProjectsGridModalModule -->
<g id="node3" class="node">
<title>ProjectsGridModalModule</title>
<polygon fill="#8dd3c7" stroke="#000000" points="244.3557,-122 241.3557,-126 220.3557,-126 217.3557,-122 77.6443,-122 77.6443,-86 244.3557,-86 244.3557,-122"/>
<text text-anchor="middle" x="161" y="-99.8" font-family="Times,serif" font-size="14.00" fill="#000000">ProjectsGridModalModule</text>
</g>
<!-- ProjectsGridModalModule&#45;&gt;ProjectInputModule -->
<g id="edge2" class="edge">
<title>ProjectsGridModalModule&#45;&gt;ProjectInputModule</title>
<path fill="none" stroke="#000000" d="M216.0253,-122.1061C216.0253,-122.1061 216.0253,-140.991 216.0253,-140.991"/>
<polygon fill="#000000" stroke="#000000" points="212.5253,-140.9909 216.0253,-150.991 219.5253,-140.991 212.5253,-140.9909"/>
</g>
</g>
</svg>
