<?xml version="1.0" encoding="UTF-8" standalone="no"?>
<!DOCTYPE svg PUBLIC "-//W3C//DTD SVG 1.1//EN"
 "http://www.w3.org/Graphics/SVG/1.1/DTD/svg11.dtd">
<!-- Generated by graphviz version 2.40.1 (20161225.0304)
 -->
<!-- Title: dependencies Pages: 1 -->
<svg width="504pt" height="284pt"
 viewBox="0.00 0.00 504.00 284.00" xmlns="http://www.w3.org/2000/svg" xmlns:xlink="http://www.w3.org/1999/xlink">
<g id="graph0" class="graph" transform="scale(1 1) rotate(0) translate(4 280)">
<title>dependencies</title>
<polygon fill="#ffffff" stroke="transparent" points="-4,4 -4,-280 500,-280 500,4 -4,4"/>
<text text-anchor="start" x="227.0091" y="-42.4" font-family="sans-serif" font-weight="bold" font-size="14.00" fill="#000000">Legend</text>
<polygon fill="#ffffb3" stroke="transparent" points="14,-10 14,-30 34,-30 34,-10 14,-10"/>
<text text-anchor="start" x="37.629" y="-15.4" font-family="sans-serif" font-size="14.00" fill="#000000"> &#160;Declarations</text>
<polygon fill="#8dd3c7" stroke="transparent" points="127,-10 127,-30 147,-30 147,-10 127,-10"/>
<text text-anchor="start" x="150.7251" y="-15.4" font-family="sans-serif" font-size="14.00" fill="#000000"> &#160;Module</text>
<polygon fill="#80b1d3" stroke="transparent" points="213,-10 213,-30 233,-30 233,-10 213,-10"/>
<text text-anchor="start" x="236.7812" y="-15.4" font-family="sans-serif" font-size="14.00" fill="#000000"> &#160;Bootstrap</text>
<polygon fill="#fdb462" stroke="transparent" points="310,-10 310,-30 330,-30 330,-10 310,-10"/>
<text text-anchor="start" x="333.6732" y="-15.4" font-family="sans-serif" font-size="14.00" fill="#000000"> &#160;Providers</text>
<polygon fill="#fb8072" stroke="transparent" points="406,-10 406,-30 426,-30 426,-10 406,-10"/>
<text text-anchor="start" x="429.7258" y="-15.4" font-family="sans-serif" font-size="14.00" fill="#000000"> &#160;Exports</text>
<g id="clust1" class="cluster">
<title>cluster_StatusesGridModalModule</title>
<polygon fill="none" stroke="#000000" stroke-dasharray="1,5" points="59,-70 59,-268 437,-268 437,-70 59,-70"/>
</g>
<g id="clust2" class="cluster">
<title>cluster_StatusesGridModalModule_declarations</title>
<polygon fill="none" stroke="#000000" points="223,-78 223,-130 429,-130 429,-78 223,-78"/>
</g>
<g id="clust4" class="cluster">
<title>cluster_StatusesGridModalModule_imports</title>
<polygon fill="none" stroke="#000000" points="67,-78 67,-130 215,-130 215,-78 67,-78"/>
</g>
<g id="clust5" class="cluster">
<title>cluster_StatusesGridModalModule_exports</title>
<polygon fill="none" stroke="#000000" points="67,-208 67,-260 428,-260 428,-208 67,-208"/>
</g>
<!-- StatusesGridModalComponent -->
<g id="node1" class="node">
<title>StatusesGridModalComponent</title>
<polygon fill="#ffffb3" stroke="#000000" points="420.9227,-122 231.0773,-122 231.0773,-86 420.9227,-86 420.9227,-122"/>
<text text-anchor="middle" x="326" y="-99.8" font-family="Times,serif" font-size="14.00" fill="#000000">StatusesGridModalComponent</text>
</g>
<!-- StatusesGridModalModule -->
<g id="node2" class="node">
<title>StatusesGridModalModule</title>
<polygon fill="#8dd3c7" stroke="#000000" points="320.64,-187 317.64,-191 296.64,-191 293.64,-187 153.36,-187 153.36,-151 320.64,-151 320.64,-187"/>
<text text-anchor="middle" x="237" y="-164.8" font-family="Times,serif" font-size="14.00" fill="#000000">StatusesGridModalModule</text>
</g>
<!-- StatusesGridModalComponent&#45;&gt;StatusesGridModalModule -->
<g id="edge1" class="edge">
<title>StatusesGridModalComponent&#45;&gt;StatusesGridModalModule</title>
<path fill="none" stroke="#000000" d="M276.0544,-122.1061C276.0544,-122.1061 276.0544,-140.991 276.0544,-140.991"/>
<polygon fill="#000000" stroke="#000000" points="272.5544,-140.9909 276.0544,-150.991 279.5544,-140.991 272.5544,-140.9909"/>
</g>
<!-- StatusesGridModalComponent  -->
<g id="node4" class="node">
<title>StatusesGridModalComponent </title>
<polygon fill="#fb8072" stroke="#000000" points="420.4222,-252 227.5778,-252 227.5778,-216 420.4222,-216 420.4222,-252"/>
<text text-anchor="middle" x="324" y="-229.8" font-family="Times,serif" font-size="14.00" fill="#000000">StatusesGridModalComponent </text>
</g>
<!-- StatusesGridModalModule&#45;&gt;StatusesGridModalComponent  -->
<g id="edge3" class="edge">
<title>StatusesGridModalModule&#45;&gt;StatusesGridModalComponent </title>
<path fill="none" stroke="#000000" stroke-dasharray="5,2" d="M274.1794,-187.1061C274.1794,-187.1061 274.1794,-205.991 274.1794,-205.991"/>
<polygon fill="#000000" stroke="#000000" points="270.6794,-205.9909 274.1794,-215.991 277.6794,-205.991 270.6794,-205.9909"/>
</g>
<!-- StatusesGridModule  -->
<g id="node5" class="node">
<title>StatusesGridModule </title>
<polygon fill="#fb8072" stroke="#000000" points="209.0904,-252 74.9096,-252 74.9096,-216 209.0904,-216 209.0904,-252"/>
<text text-anchor="middle" x="142" y="-229.8" font-family="Times,serif" font-size="14.00" fill="#000000">StatusesGridModule </text>
</g>
<!-- StatusesGridModalModule&#45;&gt;StatusesGridModule  -->
<g id="edge4" class="edge">
<title>StatusesGridModalModule&#45;&gt;StatusesGridModule </title>
<path fill="none" stroke="#000000" stroke-dasharray="5,2" d="M181.2376,-187.1061C181.2376,-187.1061 181.2376,-205.991 181.2376,-205.991"/>
<polygon fill="#000000" stroke="#000000" points="177.7376,-205.9909 181.2376,-215.991 184.7376,-205.991 177.7376,-205.9909"/>
</g>
<!-- StatusesGridModule -->
<g id="node3" class="node">
<title>StatusesGridModule</title>
<polygon fill="#8dd3c7" stroke="#000000" points="206.5898,-122 203.5898,-126 182.5898,-126 179.5898,-122 75.4102,-122 75.4102,-86 206.5898,-86 206.5898,-122"/>
<text text-anchor="middle" x="141" y="-99.8" font-family="Times,serif" font-size="14.00" fill="#000000">StatusesGridModule</text>
</g>
<!-- StatusesGridModule&#45;&gt;StatusesGridModalModule -->
<g id="edge2" class="edge">
<title>StatusesGridModule&#45;&gt;StatusesGridModalModule</title>
<path fill="none" stroke="#000000" d="M179.8626,-122.1061C179.8626,-122.1061 179.8626,-140.991 179.8626,-140.991"/>
<polygon fill="#000000" stroke="#000000" points="176.3626,-140.9909 179.8626,-150.991 183.3626,-140.991 176.3626,-140.9909"/>
</g>
</g>
</svg>
